<?xml version="1.0" encoding="utf-8"?>
<!-- Generator: Adobe Illustrator 25.0.1, SVG Export Plug-In . SVG Version: 6.00 Build 0)  -->
<svg version="1.1" id="Capa_1" xmlns="http://www.w3.org/2000/svg" xmlns:xlink="http://www.w3.org/1999/xlink" x="0px" y="0px"
	 viewBox="0 0 57 57" style="enable-background:new 0 0 57 57;" xml:space="preserve">
<path d="M22.7,45h13.13c2.85,0,5.17-2.32,5.17-5.17v-8l11.31,10.81c0.52,0.53,1.21,0.81,1.93,0.81c1.52,0,2.76-1.24,2.76-2.76v-23.5
	c0-1.52-1.24-2.76-2.76-2.76c-0.69,0-1.36,0.27-1.86,0.75L41,25.67v-8.73c0-2.73-2.22-4.94-4.94-4.94H4.94C2.22,12,0,14.22,0,16.94
	v23.26C0,42.85,2.15,45,4.79,45h14.77"/>
</svg>
