<svg id="Layer_1" data-name="Layer 1" xmlns="http://www.w3.org/2000/svg" viewBox="0 0 1403.76 692.92"><path d="M841.6,321.67H951.55a51,51,0,0,0,10.25-.61c6.43-1.35,8.2-6.66,3.4-11.16-5.7-5.33-12-10-18.23-14.84-14.91-11.39-30.11-22.4-44.84-34-13.12-10.35-23.62-23-30.06-38.64-9-21.82-2.08-48.58,17.55-61.85A88.64,88.64,0,0,1,939,145.25c44.65-.57,89.34-.36,134-.44,8.68,0,17.36.21,26-.06,2.35-.07,4.66-1.5,7-2.31a34.13,34.13,0,0,0-3.44-5.94,193.72,193.72,0,0,0-55-42.82,196.71,196.71,0,0,0-49-17.67A182.16,182.16,0,0,0,925,74.58a189.49,189.49,0,0,0-50.46,16.68A198.42,198.42,0,0,0,817.16,134a191.79,191.79,0,0,0-45.3,82.91,187.44,187.44,0,0,0-5.78,56.85c.44,9.21-1.09,10.59-10.24,10.6H720c-6.52,0-9.92-3.13-9.64-9.55.73-16.3.85-32.73,3-48.87,3.11-23.89,10.64-46.65,21-68.45A249.37,249.37,0,0,1,962.83,16a238.1,238.1,0,0,1,77.75,14,257.16,257.16,0,0,1,75.1,42.09,244,244,0,0,1,67.58,86.26c6.32,13.34,10.49,27.71,15.48,41.66,1.35,3.88-1,6.67-5.79,6.89-7.5.33-15,.64-22.55.64q-56,.1-111.92,0H975.57a142.55,142.55,0,0,0-17.54.62c-2.53.33-6.58,2.42-6.75,4.05a10.91,10.91,0,0,0,3.34,8.3c7,6.13,14.54,11.57,21.85,17.32,14.63,11.48,29.69,22.48,43.76,34.64,12.45,10.8,22.22,23.81,26.84,40.15a51.37,51.37,0,0,1-25.48,59.87c-18.48,9.9-38.57,12.14-58.86,12.4-35.33.42-70.67-.11-106-.18q-20.36,0-40.72.34c-1.61,0-3.2,1-4.81,1.59a22.31,22.31,0,0,0,2.19,4.05,190.72,190.72,0,0,0,114.71,63.89,206.76,206.76,0,0,0,46.9,1.78,181.82,181.82,0,0,0,45.81-9.69,190.85,190.85,0,0,0,50.66-26.13,194.1,194.1,0,0,0,60.13-71.08,190.38,190.38,0,0,0,14.94-42.28,204.45,204.45,0,0,0,4.68-54c-.22-6,2.45-8.72,8.57-8.77q18.4-.13,36.81,0c7,0,10.19,3.67,10.49,10.62a239,239,0,0,1-5.4,61.39,251.53,251.53,0,0,1-32.87,80.65A248.08,248.08,0,0,1,1095,472.43a242.34,242.34,0,0,1-66.34,30.44,247.94,247.94,0,0,1-88.68,9.45,253.93,253.93,0,0,1-50.49-9.18,240.24,240.24,0,0,1-72.55-34.36,246.52,246.52,0,0,1-67.8-70.52,260.89,260.89,0,0,1-30.55-69.06c-1.21-4.2.87-7.25,5.26-7.39,6-.19,12.14,0,18.16,0H841.6Z" transform="translate(-268.46 -16)"/><path d="M268.5,682.5a21,21,0,0,0,2.27-1.15q9.83-6.68,19.61-13.39c.72-.49,1.45-1,2.23-1.46,1.21,1.69,2.25,3.3,3.44,4.79a31.08,31.08,0,0,0,13.45,9.63,47.81,47.81,0,0,0,29.43,1.68c11.86-3,18.22-13.53,17.52-25.1A18.45,18.45,0,0,0,348.32,643a82.4,82.4,0,0,0-18.23-9.46,120.83,120.83,0,0,1-17.2-7.88,47.6,47.6,0,0,1-11.39-8.76c-6.7-7.34-9.47-16.21-9.53-26-.14-19.89,9.38-34,26.47-43.43,8.32-4.58,17.39-6.72,26.8-7.56,8.67-.76,17.27-.5,25.67,2a55.11,55.11,0,0,1,26.4,16.66c.52.59.94,1.25,1.57,2.1l-21.5,17.09a7.09,7.09,0,0,1-.79-.76c-4.68-7-11.39-10.82-19.53-12.28s-16-.79-23.28,3.24c-6.08,3.35-10.35,8.23-11.82,15.22a23,23,0,0,0-.14,8.82,15.51,15.51,0,0,0,7,10.45A71.69,71.69,0,0,0,344.54,610,106.51,106.51,0,0,1,362,617.85a98.32,98.32,0,0,1,10.53,7.08,36.53,36.53,0,0,1,14.28,25.7A53.54,53.54,0,0,1,384.5,675c-4.08,11.45-11.79,19.8-22.38,25.57a68.21,68.21,0,0,1-23.44,7.35,93.24,93.24,0,0,1-27,0c-16.18-2.44-30-9.29-40.57-22-.83-1-1.19-2.46-2.65-2.88Z" transform="translate(-268.46 -16)"/><path d="M1672.22,544.3c-.47,2.4-1,4.79-1.4,7.19-.86,4.72-1.68,9.44-2.53,14.16a15.54,15.54,0,0,1-.47,1.61h-48.71L1594.84,704.5H1566.5c8-45.68,15.93-91.23,23.94-137.15-2.85-.1-5.52,0-8.19-.05H1541.6l3.89-23.52h124.34c.79,0,1.59.05,2.39.08Z" transform="translate(-268.46 -16)"/><path d="M509.28,543.88h26.94Q541.8,603,547.34,661.82h.4a.32.32,0,0,0,.2-.12l52-117.85h27.3C627,545.59,557,700.7,554.74,704.49h-27.3l-11.64-117h-.43c-.36.68-.74,1.35-1.06,2q-25.75,56.12-51.52,112.22c-1.53,3.34-.71,2.85-4.33,2.86h-25c-4.84-53.6-9.66-107.06-14.5-160.71H446.7q2.12,29.5,4.24,59c1.44,19.65,2.92,39.29,4.65,59C473.71,622.61,491.5,583.18,509.28,543.88Z" transform="translate(-268.46 -16)"/><path d="M828,704.5H793.61l-50.4-119-.51.08q-10.43,59.4-20.86,118.9H693.21q14.1-80.41,28.16-160.63h34.37L806.5,661.76l.5-.1q10.43-58.85,20.88-117.79H856.5Q842.22,624.32,828,704.5Z" transform="translate(-268.46 -16)"/><path d="M1433.35,708.9c-14.85-.06-27.06-2.07-38.54-7.54-18.75-8.94-30.35-23.73-35.46-43.71-2.56-10-2.63-20.24-1.58-30.5a97.39,97.39,0,0,1,16.64-45.95c14.11-20.58,33.25-34.17,57.72-39.5,17.94-3.91,35.83-3.18,53,3.91,22.2,9.19,35.26,26,39.83,49.47,1.87,9.67,1.6,19.42.31,29.13a98.87,98.87,0,0,1-17.84,45.52c-14.53,20.13-34,32.78-58.42,37.6A80.75,80.75,0,0,1,1433.35,708.9Zm63-96.71c-.11-1.88-.12-4.37-.42-6.82a54.94,54.94,0,0,0-1.39-7.3c-3.22-11.87-9.72-21.31-20.72-27.24a48.85,48.85,0,0,0-23.31-5.54c-17.61-.12-32.13,6.7-44.11,19.31A68.63,68.63,0,0,0,1390.65,612c-3.55,11.46-5,23.17-2.53,35,3.09,15.1,11.48,26.18,25.83,32.32,8,3.45,16.51,4.07,25.16,3.29,15.41-1.4,28.14-8.16,38.36-19.55,12.83-14.24,18.33-31.37,18.92-50.89Z" transform="translate(-268.46 -16)"/><path d="M1035.59,566.14,1012,584.05a6.16,6.16,0,0,0-.5-1.15c-8.52-12.31-20.32-17.94-35.23-17.61-25.37.57-43.48,12.78-55.4,34.63a72.38,72.38,0,0,0-8.69,38.84c.53,10.65,3.69,20.45,10.62,28.74a41.72,41.72,0,0,0,27.64,14.88,74.51,74.51,0,0,0,36.31-4.19c4.72-1.79,4.66-1.86,5.5-6.85,1.8-10.63,3.65-21.26,5.47-31.9.08-.46.11-.92.2-1.65-5.75-.28-11.41-.09-17-.12s-11.15,0-17,0c1.32-8,2.59-15.57,3.85-23.12,1.92-.48,58.65-.64,62.43-.19-.18,1.31-.32,2.62-.55,3.93q-6.4,36.72-12.79,73.44a3.39,3.39,0,0,1-1.92,2.75,120.7,120.7,0,0,1-40.39,13,119,119,0,0,1-28.22.91c-20.47-2-37.87-10.11-50.64-26.71a63.06,63.06,0,0,1-12.85-31.87c-3.19-28.35,3.75-54,21.7-76.29,14.64-18.16,33.87-28.92,56.89-32.71a92.63,92.63,0,0,1,42.47,2.44A60.68,60.68,0,0,1,1025,554.18a51.44,51.44,0,0,1,9.34,9.93C1034.73,564.73,1035.08,565.34,1035.59,566.14Z" transform="translate(-268.46 -16)"/><path d="M1232.09,609.5H1300c3.9-21.94,7.77-43.78,11.66-65.68h28.19c.41,2-26.89,157.59-27.66,160.64H1283.5c4.08-23.6,8.14-47.08,12.23-70.76H1228.1q-6.25,35.35-12.6,70.8h-28.92q13.93-80.32,27.81-160.35c1.83-.5,26.32-.58,28.94-.08Q1237.76,576.71,1232.09,609.5Z" transform="translate(-268.46 -16)"/><path d="M1177.78,560.63,1155.94,578c-.19-.39-.29-.7-.46-1-4.61-6.93-11.21-10.75-19.27-12.27-7.41-1.39-14.68-1-21.59,2.2s-12,8.21-13.73,15.92a23.18,23.18,0,0,0-.11,9.53,15.39,15.39,0,0,0,6.89,10,65.73,65.73,0,0,0,14.59,7.18,110.55,110.55,0,0,1,17.76,7.81,106.44,106.44,0,0,1,11.18,7.39c8.74,6.66,13.49,15.68,14.57,26.54A53.37,53.37,0,0,1,1163.3,675c-4.58,12.75-13.45,21.53-25.57,27.19-9.19,4.3-19,6.12-29,6.6-11.85.56-23.5-.58-34.56-5.19-9.52-4-17.86-9.63-24.28-17.85-.59-.75-1.14-1.54-1.68-2.33a4.1,4.1,0,0,1-.32-.82l23.35-16a87.44,87.44,0,0,0,6.14,7.32,28.83,28.83,0,0,0,6.71,5,46.26,46.26,0,0,0,34.41,3.53,22.76,22.76,0,0,0,16.74-21.57,29.41,29.41,0,0,0-.28-6,17.88,17.88,0,0,0-7.61-11.76A84.84,84.84,0,0,0,1107.78,633a109.58,109.58,0,0,1-16.28-7.52,43.24,43.24,0,0,1-13.44-11.4,36.92,36.92,0,0,1-7-19.36,47.7,47.7,0,0,1,2-19.43c3.9-11.58,11.39-20.24,21.79-26.44,8.88-5.3,18.62-7.92,28.85-8.89a72.49,72.49,0,0,1,22.43,1,55.63,55.63,0,0,1,29.8,17.24C1176.5,558.89,1177.05,559.68,1177.78,560.63Z" transform="translate(-268.46 -16)"/><path d="M650.23,543.85h29Q664.94,624.24,650.7,704.5h-29Z" transform="translate(-268.46 -16)"/></svg>