<svg id="Layer_1" data-name="Layer 1" xmlns="http://www.w3.org/2000/svg" viewBox="0 0 496.92 497.01"><path d="M808.9,430.47H918.84a52.59,52.59,0,0,0,10.26-.61c6.42-1.35,8.19-6.67,3.4-11.16-5.71-5.33-12-10.06-18.23-14.85-14.92-11.39-30.11-22.4-44.85-34-13.12-10.35-23.62-23-30-38.64-9-21.82-2.08-48.58,17.54-61.85A88.69,88.69,0,0,1,906.29,254c44.66-.57,89.34-.35,134-.43,8.68,0,17.35.2,26-.07,2.34-.07,4.65-1.5,7-2.31a33.5,33.5,0,0,0-3.44-5.94,193.89,193.89,0,0,0-55-42.82,196.36,196.36,0,0,0-49-17.66,181.93,181.93,0,0,0-73.49-1.43,188.78,188.78,0,0,0-50.46,16.68,198.56,198.56,0,0,0-57.43,42.71,192,192,0,0,0-45.3,82.92,187.41,187.41,0,0,0-5.78,56.84c.45,9.22-1.09,10.59-10.24,10.61H687.3c-6.52,0-9.92-3.13-9.63-9.56.72-16.3.85-32.72,3-48.86,3.12-23.89,10.65-46.66,21-68.45A249.38,249.38,0,0,1,930.12,124.82a238.31,238.31,0,0,1,77.75,14,257.16,257.16,0,0,1,75.1,42.09,244,244,0,0,1,67.59,86.27c6.31,13.33,10.48,27.7,15.48,41.66,1.35,3.87-1,6.66-5.79,6.88-7.51.34-15,.65-22.55.65q-56,.09-111.92,0H942.86a140.74,140.74,0,0,0-17.54.62c-2.52.32-6.57,2.41-6.75,4a10.92,10.92,0,0,0,3.35,8.3c7,6.12,14.53,11.56,21.85,17.31,14.63,11.49,29.69,22.49,43.75,34.64,12.46,10.8,22.23,23.81,26.84,40.15a51.37,51.37,0,0,1-25.48,59.87c-18.47,9.91-38.57,12.15-58.85,12.4-35.33.42-70.68-.11-106-.17q-20.37,0-40.73.33c-1.61,0-3.2,1-4.8,1.6a21.27,21.27,0,0,0,2.18,4,190.65,190.65,0,0,0,114.71,63.89,206.78,206.78,0,0,0,46.9,1.78,181.8,181.8,0,0,0,45.82-9.69,191,191,0,0,0,50.66-26.12,194.15,194.15,0,0,0,60.12-71.08A190.06,190.06,0,0,0,1113.81,416a204.07,204.07,0,0,0,4.68-54c-.21-6,2.46-8.71,8.57-8.77q18.4-.14,36.82,0c7,0,10.19,3.67,10.48,10.62a238.92,238.92,0,0,1-5.39,61.39,251.46,251.46,0,0,1-32.88,80.65,247.85,247.85,0,0,1-73.85,75.33,242.24,242.24,0,0,1-66.34,30.45,248.14,248.14,0,0,1-88.68,9.45,254.55,254.55,0,0,1-50.48-9.18,240.53,240.53,0,0,1-72.56-34.36,246.82,246.82,0,0,1-67.8-70.53A261.61,261.61,0,0,1,685.83,438c-1.2-4.2.88-7.25,5.26-7.4,6-.19,12.15,0,18.17,0H808.9Z" transform="translate(-677.65 -124.79)"/></svg>