<svg id="Layer_1" data-name="Layer 1" xmlns="http://www.w3.org/2000/svg" viewBox="0 0 1812.14 368.28"><path d="M137.33,306.23H218.8a38.67,38.67,0,0,0,7.6-.45c4.76-1,6.07-4.94,2.52-8.27-4.23-3.95-8.9-7.45-13.51-11-11-8.44-22.31-16.6-33.23-25.21-9.72-7.67-17.5-17.07-22.27-28.63-6.68-16.17-1.54-36,13-45.83A65.7,65.7,0,0,1,209.5,175.5c33.09-.42,66.2-.26,99.29-.32,6.43,0,12.86.15,19.28-.05,1.74,0,3.45-1.11,5.17-1.71a25.07,25.07,0,0,0-2.55-4.4A143.68,143.68,0,0,0,290,137.29a145.55,145.55,0,0,0-36.34-13.09,135,135,0,0,0-54.46-1.06,140.17,140.17,0,0,0-37.39,12.36,147.08,147.08,0,0,0-42.55,31.65,142.08,142.08,0,0,0-33.57,61.44,139,139,0,0,0-4.28,42.12c.33,6.83-.81,7.85-7.59,7.86H47.23c-4.83,0-7.35-2.32-7.14-7.08.54-12.08.63-24.25,2.19-36.21,2.31-17.7,7.89-34.57,15.57-50.72A184.79,184.79,0,0,1,227.16,79.75a176.55,176.55,0,0,1,57.61,10.36,190.37,190.37,0,0,1,55.65,31.19,180.79,180.79,0,0,1,50.08,63.92c4.68,9.88,7.77,20.53,11.47,30.87,1,2.87-.75,4.94-4.29,5.1-5.56.25-11.14.48-16.71.48q-41.46.08-82.93,0H236.6a104.48,104.48,0,0,0-13,.46c-1.87.24-4.87,1.79-5,3a8.08,8.08,0,0,0,2.48,6.15c5.16,4.54,10.77,8.57,16.19,12.83,10.84,8.51,22,16.66,32.42,25.67,9.23,8,16.47,17.64,19.89,29.75a38.06,38.06,0,0,1-18.88,44.36c-13.69,7.34-28.58,9-43.61,9.19-26.18.31-52.37-.08-78.56-.13q-15.09,0-30.18.25c-1.19,0-2.37.77-3.56,1.18a16.39,16.39,0,0,0,1.62,3,141.34,141.34,0,0,0,85,47.34A153.08,153.08,0,0,0,236.16,406a134.59,134.59,0,0,0,34-7.18,141.64,141.64,0,0,0,37.54-19.36,143.86,143.86,0,0,0,44.55-52.67,141,141,0,0,0,11.07-31.33,151.46,151.46,0,0,0,3.47-40c-.16-4.43,1.82-6.46,6.35-6.5q13.64-.1,27.28,0c5.17,0,7.55,2.72,7.77,7.87a177.4,177.4,0,0,1-4,45.49,186.31,186.31,0,0,1-24.36,59.76,183.7,183.7,0,0,1-54.72,55.82A179.67,179.67,0,0,1,275.9,440.5a183.78,183.78,0,0,1-65.71,7,188.61,188.61,0,0,1-37.41-6.8A178.09,178.09,0,0,1,119,415.24,182.74,182.74,0,0,1,68.78,363a193.83,193.83,0,0,1-22.64-51.17c-.89-3.11.65-5.37,3.9-5.48,4.48-.14,9,0,13.46,0h73.83Z" transform="translate(-40.08 -79.73)"/><path d="M448.5,318.5a21,21,0,0,0,2.27-1.15q9.83-6.68,19.61-13.39c.72-.49,1.45-.95,2.23-1.46,1.21,1.69,2.25,3.3,3.44,4.79a31.08,31.08,0,0,0,13.45,9.63,47.81,47.81,0,0,0,29.43,1.68c11.86-3,18.22-13.53,17.52-25.1A18.45,18.45,0,0,0,528.32,279a82.4,82.4,0,0,0-18.23-9.46,120.83,120.83,0,0,1-17.2-7.88,47.6,47.6,0,0,1-11.39-8.76c-6.7-7.34-9.47-16.21-9.53-26-.14-19.89,9.38-34,26.47-43.43,8.32-4.58,17.39-6.72,26.8-7.56,8.67-.76,17.27-.5,25.67,2a55.11,55.11,0,0,1,26.4,16.66c.52.59.94,1.25,1.57,2.1l-21.5,17.09a7.09,7.09,0,0,1-.79-.76c-4.68-7-11.39-10.82-19.53-12.28s-16-.79-23.28,3.24c-6.08,3.35-10.35,8.23-11.82,15.22a23,23,0,0,0-.14,8.82,15.51,15.51,0,0,0,7,10.45A71.69,71.69,0,0,0,524.54,246,106.51,106.51,0,0,1,542,253.85a98.32,98.32,0,0,1,10.53,7.08,36.53,36.53,0,0,1,14.28,25.7A53.54,53.54,0,0,1,564.5,311c-4.08,11.45-11.79,19.8-22.38,25.57a68.21,68.21,0,0,1-23.44,7.35,93.24,93.24,0,0,1-27,0c-16.18-2.44-30-9.29-40.57-22-.83-1-1.19-2.46-2.65-2.88Z" transform="translate(-40.08 -79.73)"/><path d="M1852.22,180.3c-.47,2.4-1,4.79-1.4,7.19-.86,4.72-1.68,9.44-2.53,14.16a15.54,15.54,0,0,1-.47,1.61h-48.71L1774.84,340.5H1746.5c8-45.68,15.93-91.23,23.94-137.15-2.85-.1-5.52,0-8.19,0H1721.6l3.89-23.52h124.34c.79,0,1.59.05,2.39.08Z" transform="translate(-40.08 -79.73)"/><path d="M689.28,179.88h26.94Q721.8,239,727.34,297.82h.4a.32.32,0,0,0,.2-.12l52-117.85h27.3C807,181.59,737,336.7,734.74,340.49h-27.3l-11.64-117h-.43c-.36.68-.74,1.35-1.06,2q-25.75,56.12-51.52,112.22c-1.53,3.34-.71,2.85-4.33,2.86h-25c-4.84-53.6-9.66-107.06-14.5-160.71H626.7q2.12,29.5,4.24,59c1.44,19.65,2.92,39.29,4.65,59C653.71,258.61,671.5,219.18,689.28,179.88Z" transform="translate(-40.08 -79.73)"/><path d="M1008,340.5H973.61l-50.4-119-.51.08q-10.43,59.4-20.86,118.9H873.21q14.1-80.42,28.16-160.63h34.37L986.5,297.76l.5-.1q10.43-58.85,20.88-117.79h28.62Q1022.22,260.32,1008,340.5Z" transform="translate(-40.08 -79.73)"/><path d="M1613.35,344.9c-14.85-.06-27.06-2.07-38.54-7.54-18.75-8.94-30.35-23.73-35.46-43.71-2.56-10-2.63-20.24-1.58-30.5a97.39,97.39,0,0,1,16.64-45.95c14.11-20.58,33.25-34.17,57.72-39.5,17.94-3.91,35.83-3.18,53,3.91,22.2,9.19,35.26,26,39.83,49.47,1.87,9.67,1.6,19.42.31,29.13a98.87,98.87,0,0,1-17.84,45.52c-14.53,20.13-34,32.78-58.42,37.6A80.75,80.75,0,0,1,1613.35,344.9Zm63-96.71c-.11-1.88-.12-4.37-.42-6.82a54.94,54.94,0,0,0-1.39-7.3c-3.22-11.87-9.72-21.31-20.72-27.24a48.85,48.85,0,0,0-23.31-5.54c-17.61-.12-32.13,6.7-44.11,19.31A68.63,68.63,0,0,0,1570.65,248c-3.55,11.46-5,23.17-2.53,35,3.09,15.1,11.48,26.18,25.83,32.32,8,3.45,16.51,4.07,25.16,3.29,15.41-1.4,28.14-8.16,38.36-19.55,12.83-14.24,18.33-31.37,18.92-50.89Z" transform="translate(-40.08 -79.73)"/><path d="M1215.59,202.14,1192,220.05a6.16,6.16,0,0,0-.5-1.15c-8.52-12.31-20.32-17.94-35.23-17.61-25.37.57-43.48,12.78-55.4,34.63a72.38,72.38,0,0,0-8.69,38.84c.53,10.65,3.69,20.45,10.62,28.74a41.72,41.72,0,0,0,27.64,14.88,74.51,74.51,0,0,0,36.31-4.19c4.72-1.79,4.66-1.86,5.5-6.85,1.8-10.63,3.65-21.26,5.47-31.9.08-.46.11-.92.2-1.65-5.75-.28-11.41-.09-17-.12s-11.15,0-17,0c1.32-8,2.59-15.57,3.85-23.12,1.92-.48,58.65-.64,62.43-.19-.18,1.31-.32,2.62-.55,3.93q-6.4,36.72-12.79,73.44a3.39,3.39,0,0,1-1.92,2.75,120.7,120.7,0,0,1-40.39,13,119,119,0,0,1-28.22.91c-20.47-2.05-37.87-10.11-50.64-26.71a63.06,63.06,0,0,1-12.85-31.87c-3.19-28.35,3.75-54,21.7-76.29,14.64-18.16,33.87-28.92,56.89-32.71a92.63,92.63,0,0,1,42.47,2.44A60.68,60.68,0,0,1,1205,190.18a51.44,51.44,0,0,1,9.34,9.93C1214.73,200.73,1215.08,201.34,1215.59,202.14Z" transform="translate(-40.08 -79.73)"/><path d="M1412.09,245.5H1480c3.9-21.94,7.77-43.78,11.66-65.68h28.19c.41,2-26.89,157.59-27.66,160.64H1463.5c4.08-23.6,8.14-47.08,12.23-70.76H1408.1q-6.25,35.35-12.6,70.8h-28.92q13.93-80.33,27.81-160.35c1.83-.5,26.32-.58,28.94-.08Q1417.77,212.71,1412.09,245.5Z" transform="translate(-40.08 -79.73)"/><path d="M1357.78,196.63,1335.94,214c-.19-.39-.29-.7-.46-1-4.61-6.93-11.21-10.75-19.27-12.27-7.41-1.39-14.68-1-21.59,2.2s-12,8.21-13.73,15.92a23.18,23.18,0,0,0-.11,9.53,15.39,15.39,0,0,0,6.89,10,65.73,65.73,0,0,0,14.59,7.18,110.55,110.55,0,0,1,17.76,7.81,106.44,106.44,0,0,1,11.18,7.39c8.74,6.66,13.49,15.68,14.57,26.54A53.37,53.37,0,0,1,1343.3,311c-4.58,12.75-13.45,21.53-25.57,27.19-9.19,4.3-19,6.12-29,6.6-11.85.56-23.5-.58-34.56-5.19-9.52-4-17.86-9.63-24.28-17.85-.59-.75-1.14-1.54-1.68-2.33a4.1,4.1,0,0,1-.32-.82l23.35-16a87.44,87.44,0,0,0,6.14,7.32,28.83,28.83,0,0,0,6.71,5,46.26,46.26,0,0,0,34.41,3.53,22.76,22.76,0,0,0,16.74-21.57,29.41,29.41,0,0,0-.28-6,17.88,17.88,0,0,0-7.61-11.76A84.84,84.84,0,0,0,1287.78,269a109.58,109.58,0,0,1-16.28-7.52,43.24,43.24,0,0,1-13.44-11.4,36.92,36.92,0,0,1-7-19.36,47.7,47.7,0,0,1,2-19.43c3.9-11.58,11.39-20.24,21.79-26.44,8.88-5.3,18.62-7.92,28.85-8.89a72.49,72.49,0,0,1,22.43,1,55.63,55.63,0,0,1,29.8,17.24C1356.5,194.89,1357.05,195.68,1357.78,196.63Z" transform="translate(-40.08 -79.73)"/><path d="M830.23,179.85h29Q844.94,260.24,830.7,340.5h-29Z" transform="translate(-40.08 -79.73)"/></svg>