<?xml version="1.0" encoding="iso-8859-1"?>
<!-- Generator: Adobe Illustrator 19.0.0, SVG Export Plug-In . SVG Version: 6.00 Build 0)  -->
<svg version="1.1" id="Capa_1" xmlns="http://www.w3.org/2000/svg" xmlns:xlink="http://www.w3.org/1999/xlink" x="0px" y="0px"
	 viewBox="0 0 512.121 512.121" style="enable-background:new 0 0 512.121 512.121;" xml:space="preserve">
<g transform="translate(-1 -1)">
	<g>
		<g>
			<path d="M257.043,188.827c23.564,0,42.667-19.103,42.667-42.667s-19.103-42.667-42.667-42.667s-42.667,19.102-42.667,42.667
				C214.404,169.713,233.491,188.799,257.043,188.827z M257.043,120.56c14.138,0,25.6,11.461,25.6,25.6s-11.462,25.6-25.6,25.6
				s-25.6-11.462-25.6-25.6C231.459,132.028,242.911,120.576,257.043,120.56z"/>
			<path d="M316.777,325.36H299.71v-102.4c-0.011-9.421-7.646-17.056-17.067-17.067H222.91c-9.421,0.011-17.056,7.646-17.067,17.067
				v17.067c0.011,9.421,7.646,17.056,17.067,17.067l8.533-0.009v68.275h-17.067c-9.421,0.011-17.056,7.646-17.067,17.067v34.133
				c0.011,9.421,7.646,17.056,17.067,17.067h102.4c9.421-0.011,17.056-7.645,17.067-17.067v-34.133
				C333.833,333.006,326.198,325.371,316.777,325.36z M316.777,376.56h-102.4v-34.133h17.067
				c9.421-0.011,17.056-7.646,17.067-17.067v-68.267c-0.011-9.421-7.645-17.056-17.067-17.067h-8.533V222.96h59.733v102.4
				c0.011,9.421,7.645,17.056,17.067,17.067h17.067V376.56z"/>
			<path d="M440.618,78.553C361.368-2.93,237.886-22.413,137.398,30.712C36.91,83.836-16.527,196.848,6.179,308.224
				s116.12,194.449,229.385,203.995h0c7.233,0.583,14.435,0.878,21.604,0.884c48.094,0.09,95.226-13.471,135.917-39.108
				c2.777-1.823,6.342-1.936,9.229-0.292l63.675,38.175c2.636,1.581,5.918,1.622,8.593,0.108c2.675-1.515,4.328-4.351,4.328-7.425
				V387.052c0.013-1.428,0.395-2.829,1.108-4.067C535.913,284.011,519.868,160.036,440.618,78.553z M465.164,374.586
				c-2.165,3.799-3.309,8.094-3.321,12.466v102.442l-50.75-30.425c-8.391-4.982-18.876-4.798-27.087,0.475
				c-43.817,27.603-95.456,40.125-147.05,35.658c-92.652-7.815-172.357-68.666-204.312-155.983
				C0.688,251.901,22.286,153.976,88.006,88.202c44.915-44.914,105.856-70.109,169.375-70.025c6.258,0,12.539,0.244,18.842,0.733
				c81.271,6.565,153.59,54.106,191.841,126.112C506.315,217.03,505.222,303.568,465.164,374.586z"/>
			<path d="M257.043,52.294c-113.108,0-204.8,91.692-204.8,204.8c0.129,113.054,91.746,204.671,204.8,204.8
				c113.108,0,204.8-91.692,204.8-204.8S370.151,52.294,257.043,52.294z M257.043,444.827
				c-103.682,0-187.733-84.051-187.733-187.733C69.427,153.46,153.41,69.477,257.043,69.36
				c103.682,0,187.733,84.051,187.733,187.733S360.726,444.827,257.043,444.827z"/>
		</g>
	</g>
</g>
<g>
</g>
<g>
</g>
<g>
</g>
<g>
</g>
<g>
</g>
<g>
</g>
<g>
</g>
<g>
</g>
<g>
</g>
<g>
</g>
<g>
</g>
<g>
</g>
<g>
</g>
<g>
</g>
<g>
</g>
</svg>
