<?xml version="1.0" encoding="iso-8859-1"?>
<!-- Generator: Adobe Illustrator 19.0.0, SVG Export Plug-In . SVG Version: 6.00 Build 0)  -->
<svg version="1.1" id="Capa_1" xmlns="http://www.w3.org/2000/svg" xmlns:xlink="http://www.w3.org/1999/xlink" x="0px" y="0px"
	 viewBox="0 0 512.003 512.003" style="enable-background:new 0 0 512.003 512.003;" xml:space="preserve">
<g>
	<g>
		<path d="M510.372,131.103c-0.471-3.182-2.693-5.828-5.745-6.842l-23.871-7.958c-2.389-7.904-5.554-15.552-9.45-22.833l11.213-22.5
			c1.433-2.875,1.13-6.311-0.783-8.892c-8.978-12.11-19.695-22.828-31.804-31.808c-2.583-1.911-6.019-2.214-8.896-0.783
			l-22.501,11.217c-7.281-3.896-14.929-7.061-22.833-9.45L387.748,7.37c-1.019-3.05-3.665-5.27-6.846-5.742
			c-14.923-2.15-30.077-2.15-45,0c-3.181,0.472-5.828,2.691-6.846,5.742l-7.954,23.883c-7.905,2.389-15.555,5.555-22.837,9.45
			l-10.527-5.235C247.79-0.863,190.162-10.186,140.798,11.696S59.641,82.54,59.735,136.536v1.573
			c-10.199,3.592-17.034,13.214-17.067,24.027v51.2c0.033,10.813,6.868,20.435,17.067,24.027v18.64
			c0.02,18.843,15.29,34.113,34.133,34.133h11.736c6.217,13.071,13.72,25.49,22.397,37.075v19.675
			c0.031,8.267-4.492,15.881-11.767,19.808l-76.1,41.55C15.37,421.698-0.035,447.637,0.002,475.82v27.65
			c-0.001,2.263,0.898,4.434,2.499,6.035c1.6,1.6,3.771,2.499,6.035,2.499h375.467c2.263,0.001,4.434-0.898,6.035-2.499
			c1.6-1.6,2.499-3.771,2.499-6.035v-25.941c0.13-29.061-16.215-55.687-42.188-68.725l-73.437-40.867
			c-7.625-3.838-12.419-11.663-12.375-20.2l-0.042-20.475c14.089-18.67,24.873-39.616,31.885-61.929
			c7.834,4.422,16.123,7.983,24.723,10.621l7.954,23.883c1.019,3.05,3.665,5.27,6.846,5.742c14.922,2.167,30.078,2.167,45,0
			c3.181-0.472,5.827-2.691,6.846-5.742l7.954-23.883c7.904-2.389,15.553-5.554,22.833-9.45l22.5,11.217
			c2.872,1.456,6.322,1.152,8.896-0.783c12.106-8.983,22.823-19.701,31.804-31.808c1.913-2.58,2.216-6.017,0.783-8.892l-11.213-22.5
			c3.895-7.281,7.061-14.929,9.45-22.833l23.871-7.958c3.053-1.014,5.275-3.66,5.746-6.842
			C512.544,161.182,512.544,146.024,510.372,131.103z M68.268,221.87c-4.711-0.005-8.529-3.823-8.533-8.533v-51.2
			c0.005-4.711,3.822-8.529,8.533-8.533h25.6v68.267H68.268z M93.868,273.07c-9.421-0.011-17.056-7.645-17.067-17.067v-17.067
			h17.067v17.067c-0.001,0.642,0.072,1.283,0.217,1.908c1.22,5.133,2.726,10.193,4.51,15.158H93.868z M281.677,135.419
			c-0.05,0.37-0.075,0.743-0.075,1.117V255.02c-6.142,22.414-16.558,43.43-30.675,61.892c-2.26,2.957-3.476,6.579-3.458,10.3v20.525
			c-0.095,14.868,8.205,28.518,21.45,35.275l73.454,40.875c20.343,10.124,33.173,30.92,33.096,53.642l0,17.408h-358.4l0-19.117
			c-0.032-21.93,11.954-42.116,31.225-52.583l76.075-41.533c12.786-6.907,20.74-20.284,20.7-34.817v-19.675
			c0.018-3.721-1.199-7.343-3.458-10.3c-6.338-8.469-12.003-17.421-16.941-26.775h39.039c3.592,10.199,13.214,17.033,24.027,17.067
			h25.6c14.138,0,25.6-11.462,25.6-25.6c0-14.138-11.461-25.6-25.6-25.6h-25.6c-10.813,0.033-20.435,6.868-24.028,17.067h-46.921
			c-2.378-5.869-4.333-11.901-5.851-18.05V136.536c0-0.373-0.025-0.747-0.075-1.117c-1.251-15.524,3.666-30.916,13.683-42.842
			c14.137-16.125,38.271-24.308,71.725-24.308c33.329,0,57.412,8.125,71.575,24.142
			C277.882,104.398,282.845,119.829,281.677,135.419z M179.202,281.603c0.005-4.711,3.822-8.529,8.533-8.533h25.6
			c4.713,0,8.533,3.821,8.533,8.533s-3.821,8.533-8.533,8.533h-25.6C183.024,290.132,179.206,286.314,179.202,281.603z
			 M280.827,81.336c-17.52-20-45.971-30.133-84.558-30.133c-38.588,0-67.038,10.133-84.558,30.133
			c-12.995,15.328-19.421,35.163-17.883,55.2H76.802C76.876,70.587,130.319,17.144,196.268,17.07
			c65.949,0.074,119.393,53.518,119.467,119.467H298.71C300.248,116.5,293.822,96.665,280.827,81.336z M332.802,138.109v-1.573
			c-0.015-14.526-2.362-28.955-6.949-42.737c9.963-5.518,21.16-8.429,32.549-8.463c25.662-0.139,49.234,14.124,61.017,36.921
			c11.783,22.797,9.786,50.276-5.169,71.13c-14.955,20.854-40.342,31.56-65.714,27.712c0.847-2.502,1.297-5.121,1.332-7.763v-51.2
			C349.835,151.323,343.001,141.701,332.802,138.109z M332.802,162.136v51.2c-0.005,4.711-3.822,8.529-8.533,8.533h-25.6v-68.267
			h25.6C328.979,153.608,332.797,157.426,332.802,162.136z M494.148,168.453L494.148,168.453l-23.071,7.691
			c-2.735,0.908-4.827,3.137-5.558,5.925c-2.49,9.511-6.268,18.637-11.229,27.125c-1.453,2.487-1.555,5.539-0.271,8.117
			l10.842,21.758c-6.215,7.739-13.256,14.778-20.996,20.992l-21.75-10.842c-2.576-1.292-5.631-1.191-8.117,0.267
			c-8.487,4.963-17.613,8.739-27.125,11.225c-2.788,0.734-5.019,2.824-5.933,5.558l-7.688,23.083c-9.873,1.033-19.827,1.033-29.7,0
			l-7.688-23.083c-0.914-2.735-3.145-4.824-5.933-5.558c-9.644-2.532-18.894-6.376-27.492-11.425
			c-1.337-0.749-2.599-1.623-3.771-2.611v-7.74h25.6c4.144-0.029,8.218-1.077,11.862-3.051c7.251,2.021,14.744,3.047,22.271,3.051
			c35.457,0.143,67.307-21.655,80.012-54.758s3.615-70.613-22.834-94.228c-26.448-23.615-64.744-28.415-96.203-12.057
			c-3.676-7.691-8.064-15.02-13.108-21.892c7.482-4.096,15.425-7.287,23.661-9.506c2.788-0.734,5.019-2.824,5.933-5.558
			l7.688-23.083c9.873-1.033,19.827-1.033,29.7,0l7.688,23.083c0.914,2.735,3.145,4.824,5.933,5.558
			c9.512,2.486,18.638,6.262,27.125,11.225c2.487,1.454,5.54,1.554,8.117,0.267l21.75-10.842
			c7.743,6.211,14.783,13.25,20.996,20.992l-10.842,21.758c-1.284,2.578-1.182,5.63,0.271,8.117
			c4.961,8.488,8.739,17.614,11.229,27.125c0.732,2.788,2.823,5.017,5.558,5.925l23.071,7.692
			C495.198,148.626,495.198,158.581,494.148,168.453z"/>
	</g>
</g>
<g>
</g>
<g>
</g>
<g>
</g>
<g>
</g>
<g>
</g>
<g>
</g>
<g>
</g>
<g>
</g>
<g>
</g>
<g>
</g>
<g>
</g>
<g>
</g>
<g>
</g>
<g>
</g>
<g>
</g>
</svg>
