<?xml version="1.0" encoding="utf-8"?>
<!-- Generator: Adobe Illustrator 25.0.1, SVG Export Plug-In . SVG Version: 6.00 Build 0)  -->
<svg version="1.1" id="Capa_1" xmlns="http://www.w3.org/2000/svg" xmlns:xlink="http://www.w3.org/1999/xlink" x="0px" y="0px"
	 viewBox="0 0 57 57" style="enable-background:new 0 0 57 57;" xml:space="preserve">
<g>
	<path d="M21.1,45.7 M22.7,44.3h13.1c2.9,0,5.2-2.3,5.2-5.2v-8L52.3,42c0.5,0.5,1.2,0.8,1.9,0.8c0.4,0,0.7-0.1,1.1-0.2
		c1-0.4,1.7-1.4,1.7-2.6V16.5c0-1.1-0.6-2.1-1.7-2.5c-1-0.4-2.2-0.2-3,0.5L41,25v-8.7c0-2.7-2.2-4.9-4.9-4.9H4.9
		c-2.7,0-4.9,2.2-4.9,4.9v23.3c0,2.6,2.1,4.8,4.8,4.8h14.8 M39,39.1c0,1.8-1.4,3.2-3.2,3.2H21.2c0,0,0,0,0,0h-0.1c0,0,0,0,0,0H4.8
		c-1.5,0-2.8-1.3-2.8-2.8V16.3c0-1.6,1.3-2.9,2.9-2.9h31.1c1.6,0,2.9,1.3,2.9,2.9V39.1z M55,40c0,0.5-0.4,0.7-0.5,0.7
		c-0.1,0.1-0.5,0.2-0.8-0.2l-12.5-12C41.1,28.4,41,28.2,41,28s0.1-0.4,0.2-0.5l12.5-11.6c0.2-0.2,0.3-0.2,0.5-0.2
		c0.1,0,0.2,0,0.3,0.1c0.1,0,0.5,0.2,0.5,0.7V40z"/>
</g>
</svg>
