<svg id="Capa_1" enable-background="new 0 0 485.991 485.991" height="512" viewBox="0 0 485.991 485.991" width="512" xmlns="http://www.w3.org/2000/svg"><g><path d="m155.737 222.564c-53.778 37.729-66.836 112.175-29.108 165.953 23.158 33.011 60.143 50.676 97.699 50.676 23.627 0 47.486-6.998 68.255-21.567 53.778-37.728 66.836-112.174 29.108-165.953-37.726-53.778-112.172-66.837-165.954-29.109zm128.231 182.783c-47.006 32.977-112.08 21.564-145.06-25.444-32.978-47.008-21.563-112.081 25.444-145.06 18.155-12.737 39.005-18.852 59.661-18.852 32.824 0 65.157 15.444 85.398 44.295 32.979 47.01 21.565 112.083-25.443 145.061z"/><path d="m135.198 312.802 14.951 1.21c.365-4.515 1.155-9.018 2.348-13.383l-14.471-3.952c-1.436 5.26-2.387 10.685-2.828 16.125z"/><path d="m143.738 281.367 13.516 6.505c1.967-4.087 4.321-8.011 6.997-11.661l-12.1-8.867c-3.217 4.391-6.048 9.109-8.413 14.023z"/><path d="m434.36 59.428-41.692-59.428-263.422 184.803c-36.138 25.353-60.24 63.26-67.867 106.741-6.315 36.002-.696 72.252 15.812 104.173l-25.561 17.931 25.845 36.839 25.843-18.13c136.706 145.984 368.446-34.282 258.459-203.576zm-147.197 32.912-12.556 27.469-17.379 12.192-8.773-12.505zm-206.024 337.253-8.614-12.279 12.177-8.543c1.34 2.103 2.724 4.185 4.165 6.239l.136.188c1.465 1.958 2.959 3.865 4.467 5.745zm228.533 12.382c-57.409 40.283-147.158 46.292-208.593-35.676-23.001-32.839-31.854-72.669-24.926-112.164 6.935-39.534 28.85-74.001 61.708-97.053l98.314-68.972 17.389 24.785 32.992-23.146 24.884-54.441 77.563-54.414 28.276 40.306-72.447 169.037c58.729 84.586 23.663 171.363-35.16 211.738z"/></g></svg>