<?xml version="1.0" encoding="iso-8859-1"?>
<!-- Generator: Adobe Illustrator 19.0.0, SVG Export Plug-In . SVG Version: 6.00 Build 0)  -->
<svg xmlns="http://www.w3.org/2000/svg" xmlns:xlink="http://www.w3.org/1999/xlink" version="1.1" id="Layer_1" x="0px" y="0px" viewBox="0 0 512.098 512.098" style="enable-background:new 0 0 512.098 512.098;" xml:space="preserve">
<g>
	<g>
		<path d="M484.173,201.325l-37.171-37.163c-9.975-9.975-26.214-9.993-36.207,0l-8.346,8.346c-0.006,0.006-0.012,0.01-0.018,0.016    l-55.277,55.277l-15.18-15.18L455.369,89.228c0.006-0.006,0.01-0.012,0.016-0.018l8.35-8.35c9.984-9.984,9.984-26.223,0-36.207    L426.564,7.482c-9.984-9.975-26.223-9.975-36.207,0l-16.734,16.734c-4.83,4.838-7.492,11.273-7.492,18.108    s2.662,13.269,7.492,18.099l37.171,37.171c2.117,2.117,4.516,3.78,7.076,5.001l-97.961,97.961l-15.184-15.184l46.759-46.759    c0.05-0.049,0.102-0.094,0.151-0.143l16.734-16.734c4.83-4.83,7.501-11.264,7.501-18.108c0-6.835-2.671-13.269-7.501-18.099    l-37.171-37.18c-9.984-9.95-26.223-9.967-36.207,0l-16.734,16.742c-9.975,9.984-9.975,26.223,0,36.207l37.171,37.171v0.008    c2.115,2.112,4.513,3.771,7.07,4.988l-29.84,29.84l-9.146-9.146c-9.984-9.984-26.214-9.984-36.198,0l-49.145,49.145    c-0.03,0.029-0.063,0.054-0.092,0.083c-0.003,0.003-0.005,0.005-0.008,0.007l-0.001,0.001l0,0L75.453,336.012    c-0.034,0.033-0.062,0.071-0.095,0.105l-46.241,46.241c-11.58,11.58-11.58,30.421,0,41.993l79.053,79.061    c5.794,5.794,13.397,8.687,21.001,8.687s15.215-2.893,21.009-8.687l169.6-169.6l-58.032,166.842    c-1.553,4.446,0.794,9.31,5.257,10.854c0.922,0.324,1.869,0.478,2.799,0.478c3.533,0,6.835-2.21,8.055-5.734l60.211-173.107    l60.211,173.107c1.22,3.524,4.523,5.734,8.055,5.734c0.93,0,1.877-0.154,2.799-0.478c4.463-1.545,6.81-6.409,5.257-10.854    l-67.472-193.982l21.449-21.449c9.984-9.984,9.984-26.231,0-36.207l-9.148-9.148l29.833-29.833    c1.239,2.588,2.921,4.973,5.008,7.06l37.163,37.171c4.838,4.838,11.273,7.501,18.116,7.501c6.827,0,13.261-2.662,18.099-7.501    l16.734-16.725c4.83-4.838,7.492-11.273,7.492-18.108S489.003,206.163,484.173,201.325z M385.698,48.348    c-1.621-1.613-2.5-3.746-2.5-6.025c0-2.278,0.887-4.42,2.5-6.042l16.725-16.725c3.336-3.337,8.738-3.319,12.075,0l37.171,37.163    c3.328,3.337,3.328,8.738,0,12.075l-16.734,16.734c-3.345,3.345-8.747,3.337-12.075,0L385.698,48.348z M290.331,89.232    c-3.328-3.328-3.328-8.747,0-12.075l16.725-16.725c3.319-3.337,8.755-3.328,12.075-0.009l37.171,37.171    c1.604,1.613,2.5,3.755,2.5,6.033c0,2.287-0.887,4.42-2.5,6.033l-16.734,16.734c-3.311,3.328-8.747,3.345-12.075,0L290.331,89.232    z M204.106,231.5l50.009,50.026c1.621,1.613,2.5,3.746,2.5,6.025c0,2.278-0.888,4.42-2.5,6.033l-22.766,22.766l-56.047-56.046    L204.106,231.5z M163.237,272.37l56.047,56.046l-63.642,63.642c-3.234,3.226-8.841,3.234-12.058,0h-0.009l-50.018-50.009    L163.237,272.37z M356.302,273.156L138.113,491.345c-4.932,4.941-12.945,4.924-17.877,0l-79.053-79.061    c-4.924-4.924-4.924-12.937,0-17.86l40.308-40.308l50.009,50.009c4.838,4.838,11.273,7.501,18.108,7.501    c6.835,0,13.269-2.662,18.099-7.501l69.676-69.676l28.799-28.799l0.001-0.001c0.204-0.204,0.398-0.414,0.595-0.623    c0.094-0.101,0.194-0.198,0.286-0.3c4.28-4.712,6.62-10.767,6.62-17.176c0-3.253-0.61-6.411-1.764-9.351    c-1.058-2.699-2.579-5.211-4.524-7.438c-0.39-0.447-0.79-0.886-1.213-1.31l-50.01-50.017l43.208-43.208    c3.328-3.328,8.73-3.311,12.066,0l69.64,69.64c0.012,0.012,0.021,0.025,0.033,0.036s0.025,0.021,0.036,0.033l15.146,15.146    C359.63,264.409,359.63,269.819,356.302,273.156z M472.099,225.466l-16.725,16.734c-3.234,3.226-8.841,3.234-12.075,0    l-37.171-37.171v-0.009c-1.613-1.604-2.5-3.738-2.5-6.025c0-2.278,0.896-4.42,2.5-6.033l16.734-16.734    c1.664-1.664,3.849-2.5,6.033-2.5c2.193,0,4.378,0.836,6.042,2.5l37.163,37.163C475.427,216.727,475.427,222.138,472.099,225.466z    "/>
	</g>
</g>
<g>
</g>
<g>
</g>
<g>
</g>
<g>
</g>
<g>
</g>
<g>
</g>
<g>
</g>
<g>
</g>
<g>
</g>
<g>
</g>
<g>
</g>
<g>
</g>
<g>
</g>
<g>
</g>
<g>
</g>
</svg>
