<?xml version="1.0" encoding="iso-8859-1"?>
<!-- Generator: Adobe Illustrator 19.0.0, SVG Export Plug-In . SVG Version: 6.00 Build 0)  -->
<svg xmlns="http://www.w3.org/2000/svg" xmlns:xlink="http://www.w3.org/1999/xlink" version="1.1" id="Layer_1" x="0px" y="0px" viewBox="0 0 512 512" style="enable-background:new 0 0 512 512;" xml:space="preserve">
<g>
	<g>
		<path d="M390.835,85.737L234.667,36.421V8.533c0-4.719-3.814-8.533-8.533-8.533S217.6,3.814,217.6,8.533v34.136v102.4v281.717    c-52.204,1.432-102.4,15.987-102.4,42.547C115.2,497.34,171.008,512,226.133,512c55.125,0,110.933-14.66,110.933-42.667    c0-26.561-50.196-41.115-102.4-42.547V151.318l156.169-49.316c3.55-1.118,5.965-4.412,5.965-8.132    C396.8,90.14,394.385,86.846,390.835,85.737z M320,469.333c0,8.695-33.135,25.6-93.867,25.6c-60.732,0-93.867-16.905-93.867-25.6    c0-8.278,30.051-23.985,85.333-25.474v25.474c0,4.719,3.814,8.533,8.533,8.533s8.533-3.814,8.533-8.533v-25.474    C289.949,445.349,320,461.055,320,469.333z M234.667,133.421V54.309l125.269,39.561L234.667,133.421z"/>
	</g>
</g>
<g>
</g>
<g>
</g>
<g>
</g>
<g>
</g>
<g>
</g>
<g>
</g>
<g>
</g>
<g>
</g>
<g>
</g>
<g>
</g>
<g>
</g>
<g>
</g>
<g>
</g>
<g>
</g>
<g>
</g>
</svg>
