<?xml version="1.0" encoding="iso-8859-1"?>
<!-- Generator: Adobe Illustrator 19.0.0, SVG Export Plug-In . SVG Version: 6.00 Build 0)  -->
<svg version="1.1" id="Capa_1" xmlns="http://www.w3.org/2000/svg" xmlns:xlink="http://www.w3.org/1999/xlink" x="0px" y="0px"
	 viewBox="0 0 511.866 511.866" style="enable-background:new 0 0 511.866 511.866;" xml:space="preserve">
<g>
	<g>
		<g>
			<path d="M480.597,456.104L366.977,342.483c-1.468-1.484-3.122-2.771-4.921-3.829c-6.726-4.005-14.915-4.713-22.229-1.923
				c-24.073-33.791-31.128-75.145-35.005-97.956l-0.743-4.329c0.589-4.285,1.048-8.655,1.222-13.221
				c0.562-16.456-1.704-32.886-6.7-48.575c-0.083-0.275-0.233-0.683-0.408-1.104c-3.061-9.786-7.024-19.267-11.837-28.321
				c-4.781-8.916-10.268-17.434-16.408-25.475c-5.034-6.477-10.458-12.641-16.242-18.458c-1.25-1.25-2.429-2.425-3.504-3.371
				c-7.163-6.867-14.876-13.137-23.063-18.746c-14.137-9.766-29.65-17.372-46.029-22.567c-3.958-1.271-8.054-2.404-12.104-3.325
				c-12.343-2.824-24.999-4.044-37.654-3.629c-0.133,0-0.967,0.037-1.1,0.042c-11.807,0.487-23.476,2.725-34.625,6.642
				c-10.123,3.506-19.644,8.551-28.23,14.958c-8.372,6.046-15.727,13.388-21.787,21.75c-6.427,8.597-11.492,18.133-15.017,28.271
				c-3.87,10.91-6.093,22.335-6.596,33.9c-0.109,0.766-0.159,1.539-0.15,2.313c-0.375,12.535,0.857,25.066,3.667,37.288
				c0.921,4.021,2.046,8.117,3.296,11.996c2.072,6.582,4.546,13.03,7.408,19.308c4.238,9.365,9.314,18.328,15.166,26.779
				c5.544,8.101,11.741,15.735,18.529,22.825c1.175,1.325,2.35,2.508,3.6,3.758v0.004c5.842,5.803,12.031,11.247,18.533,16.3
				c8.029,6.121,16.532,11.592,25.429,16.362c8.954,4.758,18.327,8.683,28,11.725c0.538,0.226,1.089,0.421,1.65,0.583
				c13.85,4.375,28.279,6.645,42.804,6.733c1.733,0,3.458-0.035,5.175-0.104c0.117,0,0.892-0.004,1.008-0.009
				c4.301-0.174,8.501-0.628,12.649-1.206l4.234,0.727c22.803,3.875,64.139,10.926,97.926,34.977
				c-3.586,9.408-1.323,20.044,5.782,27.178l113.712,113.713c0.481,0.487,0.997,0.937,1.546,1.346
				c10.137,8.595,25.174,7.97,34.562-1.438l12.071-12.071C490.581,482.302,490.581,466.105,480.597,456.104z M197.768,312.02
				L197.768,312.02c-0.117,0-0.892,0.004-1.008,0.009c-14.45,0.48-28.876-1.514-42.654-5.896c-0.324-0.147-0.656-0.273-0.996-0.379
				c-8.849-2.746-17.422-6.316-25.604-10.662c-8.057-4.322-15.759-9.277-23.033-14.817c-5.927-4.607-11.568-9.57-16.892-14.863
				c-1.008-1.004-1.963-1.954-3.138-3.271c-6.229-6.5-11.916-13.498-17.004-20.925c-8.82-12.759-15.682-26.765-20.358-41.554
				c-1.121-3.488-2.121-7.1-2.925-10.621c-2.483-10.787-3.575-21.848-3.25-32.912l-8.529-0.3l8.592-0.987
				c0.412-10.173,2.337-20.228,5.712-29.834c2.975-8.563,7.254-16.615,12.688-23.871c5.034-6.959,11.154-13.065,18.125-18.083
				c7.242-5.411,15.277-9.67,23.821-12.625c9.673-3.384,19.797-5.308,30.037-5.708c0.208,0,0.608-0.017,1-0.042v0.004
				c11.057-0.34,22.111,0.751,32.887,3.246c3.55,0.808,7.163,1.808,10.721,2.95c14.767,4.681,28.753,11.54,41.496,20.35
				c7.513,5.152,14.591,10.912,21.163,17.221c1.067,0.95,2.013,1.9,3.017,2.908c5.271,5.299,10.213,10.915,14.8,16.817
				c5.559,7.286,10.529,15.004,14.862,23.079c4.355,8.192,7.934,16.774,10.688,25.633c0.101,0.337,0.225,0.667,0.371,0.987
				l0.025,0.079c4.419,13.974,6.405,28.604,5.871,43.25c-0.361,10.418-2.289,20.722-5.717,30.566
				c-2.922,8.528-7.144,16.553-12.517,23.792c-2.578,3.46-5.4,6.731-8.446,9.788c-3.055,3.038-6.32,5.858-9.771,8.438
				c-7.26,5.384-15.308,9.616-23.858,12.546C218.223,309.717,208.053,311.633,197.768,312.02z M326.221,347.034l-2.965,2.965
				c-23.353-15.924-49.627-27.071-77.307-32.797c5.649-2.751,11.032-6.017,16.081-9.756c8.231-6.124,15.523-13.418,21.646-21.65
				c3.736-5.045,6.999-10.424,9.747-16.068C299.15,297.408,310.297,323.681,326.221,347.034L326.221,347.034z M468.531,480.237
				l-12.071,12.071c-3.148,3.173-8.224,3.342-11.575,0.383c-0.183-0.162-0.375-0.321-0.575-0.467L330.772,378.687
				c-3.271-3.292-3.311-8.596-0.089-11.936c0.041-0.049,0.104-0.064,0.143-0.114c0.037-0.047,0.042-0.106,0.079-0.154l11.793-11.793
				c0.052-0.04,0.115-0.051,0.166-0.091c0.058-0.046,0.081-0.117,0.138-0.164c2.847-2.633,7.091-3.067,10.412-1.065
				c0.547,0.327,1.05,0.723,1.496,1.179L468.531,468.17C471.856,471.505,471.856,476.902,468.531,480.237L468.531,480.237z"/>
			<path d="M403.135,144.987c5.772-0.003,11.523-0.7,17.129-2.075c3.27-0.695,6.471-1.68,9.567-2.942
				c9.344-3.63,17.828-9.17,24.908-16.267c7.087-7.019,12.612-15.456,16.212-24.758c1.269-3.103,2.263-6.311,2.971-9.588
				c6.048-24.519-1.238-50.411-19.183-68.179C431.555-1.955,395.74-6.671,367.358,9.674c-28.382,16.344-42.28,49.688-33.908,81.352
				C341.821,122.689,370.384,144.806,403.135,144.987z M432.396,119.667c-4.363-11.686-15.34-19.59-27.807-20.021
				c-12.103-0.614-21.782-10.278-22.417-22.379c-0.307-7.012,2.343-13.832,7.303-18.798c4.96-4.966,11.776-7.624,18.789-7.327
				c12.119,0.619,21.802,10.31,22.412,22.429c0.436,12.472,8.351,23.449,20.046,27.804
				C446.185,108.867,439.896,115.144,432.396,119.667z M364.285,33.245c17.542-17.565,44.629-21.315,66.282-9.174
				c21.654,12.14,32.586,37.205,26.751,61.334c-5.444-1.716-9.259-6.62-9.583-12.318c-0.825-21.176-17.792-38.158-38.967-39.004
				c-11.701-0.438-23.055,4.016-31.338,12.292s-12.745,19.628-12.316,31.329c0.833,21.181,17.811,38.162,38.992,39
				c5.701,0.319,10.61,4.132,12.331,9.577c-18.75,4.633-38.556-0.929-52.152-14.647C342.677,89.971,342.677,54.907,364.285,33.245z"
				/>
		</g>
	</g>
</g>
<g>
</g>
<g>
</g>
<g>
</g>
<g>
</g>
<g>
</g>
<g>
</g>
<g>
</g>
<g>
</g>
<g>
</g>
<g>
</g>
<g>
</g>
<g>
</g>
<g>
</g>
<g>
</g>
<g>
</g>
</svg>
