<?xml version="1.0" encoding="iso-8859-1"?>
<!-- Generator: Adobe Illustrator 19.0.0, SVG Export Plug-In . SVG Version: 6.00 Build 0)  -->
<svg version="1.1" id="Capa_1" xmlns="http://www.w3.org/2000/svg" xmlns:xlink="http://www.w3.org/1999/xlink" x="0px" y="0px"
	 viewBox="0 0 511.999 511.999" style="enable-background:new 0 0 511.999 511.999;" xml:space="preserve">
<g>
	<g>
		<path d="M511.879,249.168c0.074-1.094,0.039-2.192-0.104-3.279c-0.092-4.813-0.446-9.837-1.054-14.954
			c-0.028-1.556-0.17-3.107-0.425-4.642c-0.4-3.938-0.967-8.037-1.658-11.779c-1.323-8.423-3.162-16.757-5.508-24.954
			C472.533,76.317,368.682-1.487,251.404,0.971c-19.218,0.381-38.336,2.876-57.008,7.438c-1.371,0.341-2.742,0.692-4.025,1.121
			l-0.112,0.042c-4.452,1.006-8.84,2.276-13.141,3.804l-0.096,0.037c-1.95,0.496-3.796,1.108-5.708,1.792
			c-2.033,0.733-4.063,1.467-5.65,2.133c-1.825,0.658-3.65,1.329-5.2,1.992C95.922,45.161,44.698,96.183,18.613,160.622
			c-0.767,1.712-1.435,3.466-2,5.254c-0.792,1.842-1.475,3.713-2.254,5.867c-0.583,1.746-1.167,3.496-1.492,4.771
			c-1.494,4.206-2.773,8.485-3.833,12.821c-0.496,1.479-0.917,3.033-1.408,4.892C-26.057,329.391,54.93,466.58,189.546,502.393
			c8.107,2.283,16.346,4.065,24.671,5.338c3.9,0.708,7.879,1.196,11.558,1.629c1.72,0.271,3.455,0.43,5.196,0.475
			c5.009,0.624,10.048,0.974,15.095,1.05c0.975,0.146,1.966,0.162,2.946,0.046c2.833,0.104,5.673,0.156,8.521,0.154
			c14.246-0.015,28.463-1.279,42.487-3.779c6.779-1.067,14.021-2.612,22.125-4.721c7.235-1.861,14.371-4.091,21.379-6.679
			c7.179-2.526,14.21-5.452,21.063-8.763c54.219-25.164,97.852-68.607,123.25-122.716c3.357-6.875,6.321-13.935,8.879-21.146
			c2.603-7.002,4.847-14.132,6.725-21.362c2.116-8.079,3.667-15.296,4.717-21.913C511.166,283.236,512.413,266.197,511.879,249.168z
			 M425.087,87.68c16.606,16.592,30.656,35.558,41.692,56.277c-61.148,85.576-145.679,151.7-243.459,190.445
			c-0.201-0.502-0.403-0.94-0.603-1.468l-0.383-1.146c-17.958-51.183,5.75-113.521,31.513-151.342
			c29.432-44.398,69.031-81.134,115.508-107.158c7.873-4.487,16.043-8.431,24.453-11.805
			C404.951,69.322,415.415,78.085,425.087,87.68z M376.611,50.281c-5.487,2.621-10.702,5.417-15.47,8.045
			c-48.839,27.314-90.457,65.884-121.4,112.509c-28,41.112-53.579,109.416-33.463,166.762c0.217,0.671,0.462,1.396,0.621,1.737
			c0.174,0.461,0.374,0.89,0.554,1.345c-22.616,8.582-45.668,15.966-69.062,22.12c-13.09-19.637-23.339-41.026-30.446-63.53
			c14.354-4.045,26.918-12.825,35.65-24.914c4.333-5.6,8.248-11.512,11.713-17.687c4.938-8.654,9.84-17.331,14.708-26.029
			c16.525-29.404,33.617-59.804,52.638-88.142c25.496-38.095,51.296-73.7,86.513-90.691c13.702-6.683,28.312-11.318,43.361-13.756
			C360.782,41.665,368.823,45.749,376.611,50.281z M166.966,35.105c1.454-0.621,2.979-1.167,4.862-1.858
			c1.704-0.708,3.475-1.342,5.25-1.975c1.547-0.58,3.128-1.067,4.733-1.458l2.588-0.654l0.337-0.354
			c3.308-1.1,6.672-2.023,10.079-2.763l2.521-0.617l0.217-0.212c0.358-0.092,0.733-0.188,1.129-0.283
			c17.269-4.221,34.948-6.54,52.721-6.916v0.016h0.258l-0.001-0.02c24.416-0.556,48.772,2.662,72.206,9.541
			c-7.579,2.46-14.981,5.434-22.155,8.9c-39.046,18.842-66.383,56.421-93.233,96.546c-19.396,28.883-36.65,59.587-53.342,89.279
			c-4.867,8.654-9.749,17.293-14.646,25.917c-3.053,5.458-6.504,10.683-10.325,15.633c-6.618,9.166-16.148,15.818-27.034,18.871
			C74.66,165.718,134.3,53.361,134.921,52.218l-1.292-0.701C144.294,45.181,155.441,39.693,166.966,35.105z M87.075,87.68
			c6.751-6.704,13.894-13.003,21.39-18.863C91.913,108.812,65.51,191.96,85.118,280.702c-3.374-1.621-6.499-3.714-9.281-6.218
			c-11.14-11.016-18.001-25.634-19.358-41.242c-1.369-9.138-2.075-18.364-2.112-27.604c-0.114-4.76-0.902-42.91-1.09-75.554
			C62.888,114.707,74.228,100.479,87.075,87.68z M24.196,198.314c0.321-1.204,0.638-2.408,1.225-4.262
			c0.892-3.7,2.029-7.496,3.742-12.504c0.412-1.508,0.896-2.942,1.362-4.333c0.604-1.667,1.204-3.333,1.938-4.996l0.429-1.212
			c0.418-1.339,0.923-2.648,1.513-3.921c0.669-1.669,1.422-3.293,2.128-4.943c0.331,24.075,0.767,43.637,0.772,43.855
			c0.048,10.008,0.821,19.999,2.313,29.896c1.888,19.532,10.708,37.742,24.863,51.333c7.167,6.674,16.13,11.105,25.784,12.746
			c7.068,23.695,17.385,46.297,30.658,67.159c-8.815,2.073-17.691,4.007-26.629,5.801C75.061,342.83,49.948,316.92,20.46,296.758
			C14.831,264.042,16.103,230.51,24.196,198.314z M26.301,322.305c19.143,15.495,35.935,33.687,49.851,54.007
			c-8.206,1.435-16.251,2.727-24.086,3.839C40.904,362.121,32.237,342.662,26.301,322.305z M87.075,424.43
			c-8.873-8.888-17.044-18.45-24.438-28.601c7.564-1.159,15.265-2.455,23.103-3.885c8.488,15.043,14.795,31.216,18.73,48.035
			C98.463,435.061,92.605,429.942,87.075,424.43z M150.884,469.864L150.884,469.864c-9.16-4.474-18.022-9.532-26.533-15.144
			c-2.949-23.165-10.071-45.604-21.021-66.229c9.353-1.934,18.63-4.015,27.83-6.243c15.281,20.753,33.106,39.507,53.057,55.821
			C161.278,447.867,153.499,461.548,150.884,469.864z M248.817,493.843l-1.213-0.05l-0.183,0.046l-0.192-0.004
			c-4.856-0.041-9.704-0.371-14.521-0.987l-1.133-0.075c-1.165-0.017-2.327-0.124-3.475-0.321
			c-3.638-0.433-7.267-0.862-11.083-1.554c-7.759-1.183-15.437-2.843-22.992-4.971c-9.305-2.476-18.449-5.523-27.379-9.123
			c0.427-2.933,4.077-17.285,33.24-26.3c22.659,16.577,46.832,30.978,72.197,43.013
			C264.339,494.037,256.572,494.146,248.817,493.843z M357.258,471.73L357.258,471.73c-6.372,3.08-12.911,5.799-19.588,8.146
			c-6.496,2.399-13.11,4.465-19.817,6.192c-4.915,1.278-9.392,2.259-13.73,3.117c-28.557-11.795-55.878-26.382-81.566-43.549
			c22.446-2.656,45.109-2.951,67.617-0.88c42.931,3.944,86.218-0.623,127.381-13.439
			C399.686,447.848,379.341,461.484,357.258,471.73z M444.955,401.656c-30.037,15.248-80.546,31.677-153.476,26.082
			c-29.331-3.041-58.953-1.657-87.873,4.105c-20.449-15.655-38.786-33.892-54.554-54.255c22.738-6.215,44.91-13.446,66.185-21.606
			c19.231,30.107,56.256,45.914,107.822,45.914c1.254,0,2.521-0.012,3.792-0.029c43.653-1.339,86.69-10.669,126.979-27.525
			c4.319-1.894,8.6-3.983,12.846-6.159C460.416,379.947,453.149,391.147,444.955,401.656z M491.325,297.184
			c-0.983,6.204-2.421,12.879-4.392,20.413c-1.742,6.698-3.822,13.304-6.233,19.792c-0.461,1.267-0.909,2.432-1.359,3.62
			c-4.032,2.711-8.243,5.358-12.649,7.847c-6.412,3.617-13.046,6.933-19.713,9.858c-38.197,15.977-78.999,24.819-120.383,26.088
			c-32.26,0.457-73.8-5.575-95.077-35.326c97.102-38.889,181.482-104.005,243.717-188.077c4.624,10.609,8.452,21.547,11.452,32.723
			c2.187,7.647,3.901,15.421,5.133,23.279c0.642,3.496,1.142,7.129,1.558,11.1c0.174,0.985,0.267,1.983,0.279,2.983l0.063,1.029
			c0.584,4.733,0.918,9.494,1,14.263l-0.046,0.679l0.158,0.779l-0.046,0.542l0.017,0.538
			C495.336,265.349,494.17,281.395,491.325,297.184z"/>
	</g>
</g>
<g>
</g>
<g>
</g>
<g>
</g>
<g>
</g>
<g>
</g>
<g>
</g>
<g>
</g>
<g>
</g>
<g>
</g>
<g>
</g>
<g>
</g>
<g>
</g>
<g>
</g>
<g>
</g>
<g>
</g>
</svg>
