<?xml version="1.0" encoding="iso-8859-1"?>
<!-- Generator: Adobe Illustrator 19.0.0, SVG Export Plug-In . SVG Version: 6.00 Build 0)  -->
<svg version="1.1" id="Capa_1" xmlns="http://www.w3.org/2000/svg" xmlns:xlink="http://www.w3.org/1999/xlink" x="0px" y="0px"
	 viewBox="0 0 511.91 511.91" style="enable-background:new 0 0 511.91 511.91;" xml:space="preserve">
<g>
	<g>
		<path d="M511.798,249.23c0.074-1.094,0.039-2.192-0.104-3.279c-0.092-4.813-0.446-9.837-1.054-14.954
			c-0.028-1.556-0.17-3.107-0.425-4.642c-0.4-3.938-0.967-8.037-1.658-11.779c-1.323-8.423-3.162-16.757-5.508-24.954
			C466.682,55.207,329.392-25.348,194.314,8.472c-1.371,0.341-2.742,0.692-4.025,1.121l-0.112,0.042
			c-0.739,0.168-1.413,0.44-2.141,0.62l-0.009,0.001l-0.005,0.003c-3.735,0.922-7.395,1.905-10.986,3.18l-0.096,0.037
			c-1.95,0.496-3.796,1.108-5.708,1.792c-2.033,0.733-4.063,1.467-5.65,2.133c-1.825,0.658-3.65,1.329-5.2,1.992
			C95.84,45.223,44.616,96.246,18.531,160.685c-0.767,1.712-1.435,3.466-2,5.254c-0.792,1.842-1.475,3.713-2.254,5.867
			c-0.583,1.746-1.167,3.496-1.492,4.771c-1.494,4.206-2.773,8.485-3.833,12.821c-0.496,1.479-0.917,3.033-1.408,4.892
			c-2.776,11.154-4.783,22.484-6.007,33.913l-0.005,0.012l0,0.043C-12.2,353.542,67.663,470.063,189.464,502.455
			c8.107,2.283,16.346,4.065,24.671,5.338c3.9,0.708,7.879,1.196,11.558,1.629c1.72,0.271,3.455,0.43,5.196,0.475
			c5.009,0.624,10.048,0.974,15.095,1.05c0.975,0.146,1.966,0.162,2.946,0.046c2.833,0.104,5.673,0.156,8.521,0.154
			c14.246-0.015,28.463-1.279,42.487-3.779c2.694-0.424,5.533-0.985,8.398-1.566c0.297-0.027,0.593-0.071,0.885-0.13l0.101-0.054
			c4.041-0.839,8.235-1.799,12.74-2.971c7.235-1.861,14.371-4.091,21.379-6.679c7.179-2.526,14.21-5.451,21.063-8.763
			c54.219-25.164,97.852-68.607,123.251-122.716c3.357-6.875,6.321-13.935,8.879-21.146c2.603-7.002,4.847-14.132,6.725-21.362
			c2.116-8.079,3.667-15.296,4.717-21.913c1.274-7.216,2.16-14.397,2.803-21.534l0.03-0.091c0.007-0.046-0.014-0.089-0.008-0.135
			C511.798,268.643,512.097,258.932,511.798,249.23z M248.735,493.905l-1.213-0.05l-0.183,0.046l-0.192-0.004
			c-4.856-0.041-9.704-0.371-14.521-0.987l-1.133-0.075c-1.165-0.017-2.327-0.124-3.475-0.321
			c-3.638-0.433-7.267-0.862-11.083-1.554c-7.759-1.183-15.437-2.843-22.992-4.971C83.966,456.765,10.05,353.795,17.539,240.249
			c11.601,2.507,23.041,5.48,34.252,9.046l-8.938,10.49c-2.004,2.317-2.612,5.531-1.592,8.42c1.019,2.889,3.509,5.01,6.524,5.557
			c3.014,0.547,6.091-0.564,8.06-2.911l13.217-15.51c6.548,2.442,13.011,5.06,19.389,7.853l-9.852,9.37
			c-2.219,2.098-3.147,5.222-2.434,8.192c0.713,2.969,2.959,5.331,5.889,6.193s6.097,0.092,8.304-2.018l14.754-14.031
			c6.261,3.115,12.466,6.329,18.532,9.778l-10.832,8.332c-2.416,1.858-3.657,4.863-3.257,7.885c0.401,3.021,2.383,5.599,5.2,6.763
			c2.817,1.164,6.041,0.736,8.457-1.122l16.082-12.367c5.89,3.737,11.638,7.67,17.307,11.721l-11.481,7.055
			c-2.622,1.584-4.194,4.453-4.118,7.516c0.076,3.063,1.788,5.85,4.486,7.302c2.698,1.452,5.967,1.347,8.565-0.276l17.191-10.561
			c5.478,4.328,10.836,8.795,16.074,13.404l-12.157,5.812c-4.253,2.033-6.052,7.129-4.019,11.381s7.129,6.052,11.381,4.019
			l18.357-8.778c5.005,4.873,9.878,9.88,14.619,15.02l-12.881,4.574c-4.441,1.579-6.762,6.459-5.183,10.9
			c1.579,4.441,6.459,6.762,10.9,5.183l19.137-6.798c4.468,5.359,8.762,10.858,12.933,16.467l-13.216,3.19
			c-4.582,1.105-7.4,5.714-6.296,10.296c1.105,4.582,5.714,7.4,10.296,6.296l19.828-4.784c3.893,5.807,7.663,11.697,11.234,17.731
			l-13.658,1.812c-4.453,0.59-7.686,4.532-7.394,9.014c0.292,4.482,4.01,7.971,8.502,7.977c0.379,0,0.758-0.025,1.133-0.075
			l20.471-2.717c3.248,6.163,6.251,12.472,9.159,18.836l-13.86,0.381c-4.665,0.127-8.363,3.978-8.3,8.644s3.862,8.417,8.529,8.418
			l0.237-0.004l20.52-0.561c1.344,3.373,2.82,6.677,4.067,10.098c1.459,4.128,2.806,8.148,4.081,12.087
			C280.226,493.443,264.471,494.501,248.735,493.905z M491.243,297.247c-0.983,6.204-2.42,12.879-4.392,20.412
			c-1.742,6.698-3.822,13.304-6.233,19.792c-2.375,6.704-5.13,13.267-8.25,19.658c-23.716,50.584-64.503,91.191-115.191,114.683
			c-6.372,3.08-12.911,5.799-19.588,8.146c-6.496,2.399-13.11,4.465-19.817,6.192c-1.83,0.476-3.472,0.826-5.209,1.241
			c-1.495-4.691-3.079-9.484-4.841-14.474c-1.234-3.386-2.7-6.652-4.024-9.992l16.557-13.137c3.675-2.934,4.284-8.289,1.36-11.972
			c-2.924-3.684-8.276-4.307-11.968-1.394l-12.749,10.113c-3.211-7.127-6.573-14.168-10.189-21.054l15-14.705
			c2.183-2.133,3.061-5.27,2.301-8.227c-0.76-2.956-3.041-5.282-5.982-6.098c-2.941-0.817-6.094,0-8.269,2.142l-11.743,11.514
			c-3.934-6.732-8.063-13.324-12.388-19.778l13.56-16.407c3.003-3.634,2.492-9.014-1.142-12.017
			c-3.634-3.003-9.014-2.492-12.017,1.142l-10.556,12.772c-4.612-6.279-9.395-12.414-14.346-18.406l11.81-17.8
			c1.69-2.541,1.895-5.791,0.536-8.524c-1.358-2.733-4.072-4.533-7.118-4.72c-3.046-0.188-5.96,1.265-7.644,3.811l-9.125,13.755
			c-5.234-5.759-10.669-11.324-16.227-16.76l9.882-18.928c1.411-2.703,1.273-5.953-0.362-8.526s-4.518-4.079-7.565-3.95
			s-5.792,1.874-7.203,4.576l-7.745,14.831c-5.799-5.187-11.746-10.197-17.84-15.03l7.905-19.997
			c1.132-2.838,0.66-6.065-1.236-8.461s-4.93-3.594-7.952-3.143c-3.022,0.451-5.573,2.484-6.687,5.329l-6.13,15.506
			c-6.308-4.564-12.726-8.971-19.299-13.16l5.737-20.579c1.226-4.526-1.429-9.192-5.946-10.452
			c-4.516-1.259-9.203,1.361-10.495,5.868l-4.453,15.971c-6.74-3.883-13.616-7.535-20.589-11.021l3.546-21.025
			c0.785-4.646-2.346-9.049-6.992-9.833c-4.646-0.785-9.049,2.346-9.833,6.992l-2.761,16.364c-7.11-3.163-14.318-6.118-21.625-8.865
			l1.328-21.241c0.191-3.043-1.257-5.956-3.796-7.642c-2.54-1.686-5.786-1.89-8.517-0.533c-2.73,1.356-4.53,4.066-4.72,7.109
			l-1.019,16.326c-13.015-4.178-26.24-7.669-39.622-10.457c1.151-8.345,2.733-16.625,4.741-24.806
			c0.321-1.204,0.638-2.408,1.225-4.262c0.892-3.7,2.029-7.496,3.742-12.504c0.412-1.508,0.896-2.942,1.362-4.333
			c0.604-1.667,1.204-3.333,1.938-4.996l0.429-1.212c0.418-1.339,0.923-2.648,1.513-3.921
			c24.366-60.213,72.243-107.879,132.563-131.979c1.454-0.621,2.979-1.167,4.862-1.858c1.704-0.708,3.475-1.342,5.25-1.975
			c1.547-0.58,3.128-1.067,4.733-1.458l2.588-0.654l0.337-0.354c0.263-0.088,0.546-0.137,0.811-0.222
			c4.723,13.346,10.169,26.425,16.314,39.179l-15.983,3.272c-4.289,0.877-7.218,4.858-6.779,9.214
			c0.438,4.356,4.102,7.673,8.479,7.678c0.577,0.001,1.152-0.057,1.717-0.175l20.836-4.262c3.731,6.861,7.659,13.589,11.785,20.184
			l-15.8,5.004c-4.011,1.272-6.497,5.278-5.855,9.437c0.641,4.159,4.218,7.23,8.426,7.234c0.875,0,1.746-0.136,2.579-0.404
			l20.324-6.435c4.421,6.424,8.993,12.724,13.776,18.861l-15.191,6.625c-2.826,1.198-4.791,3.822-5.145,6.872
			c-0.354,3.049,0.957,6.054,3.433,7.868c2.476,1.814,5.736,2.159,8.537,0.902l19.53-8.516c5.064,5.93,10.327,11.673,15.725,17.288
			l-14.455,8.2c-2.675,1.493-4.345,4.305-4.375,7.369c-0.03,3.063,1.585,5.908,4.23,7.452c2.646,1.545,5.916,1.553,8.569,0.021
			l18.662-10.589c5.64,5.364,11.431,10.556,17.372,15.578l-13.581,9.711c-2.497,1.767-3.857,4.734-3.565,7.779
			c0.291,3.045,2.19,5.7,4.976,6.961c2.786,1.261,6.035,0.934,8.514-0.856l17.353-12.406c6.159,4.748,12.427,9.356,18.861,13.737
			l-12.339,10.944c-2.315,2.014-3.372,5.116-2.766,8.124c0.606,3.008,2.78,5.46,5.695,6.42s6.12,0.282,8.396-1.777l15.95-14.146
			c6.619,4.085,13.365,7.965,20.239,11.641l-11.168,12.213c-3.167,3.481-2.919,8.869,0.555,12.044
			c3.474,3.175,8.862,2.939,12.045-0.528l14.359-15.707c7.003,3.37,14.108,6.539,21.316,9.507l-9.776,13.242
			c-2.798,3.792-1.992,9.135,1.8,11.933c3.792,2.798,9.135,1.992,11.933-1.8l12.477-16.902c7.322,2.618,14.765,4.96,22.27,7.144
			l-8.255,14.049c-2.372,4.062-1.01,9.278,3.046,11.662s9.275,1.037,11.671-3.012l10.725-18.257c3.491,0.845,6.926,1.841,10.45,2.59
			c6.195,1.334,12.84,2.502,19.787,3.61C492.626,288.672,492.002,292.947,491.243,297.247z M494.538,267.362
			c-6.162-1.002-12.082-2.054-17.611-3.24c-3.601-0.766-7.114-1.777-10.678-2.647l-2.297-20.361
			c-0.323-3.046-2.253-5.684-5.058-6.915c-2.805-1.23-6.054-0.863-8.513,0.962c-2.459,1.825-3.752,4.828-3.387,7.869l1.549,13.741
			c-6.705-1.992-13.371-4.08-19.922-6.435l-0.157-20.628c-0.036-4.688-3.846-8.469-8.533-8.471h-0.067
			c-4.711,0.037-8.501,3.885-8.467,8.596l0.105,13.76c-6.472-2.694-12.829-5.604-19.119-8.646l1.977-20.293
			c0.448-4.684-2.981-8.846-7.664-9.304c-4.683-0.457-8.852,2.963-9.319,7.645l-1.32,13.545
			c-6.137-3.348-12.186-6.829-18.116-10.506l4.077-19.915c0.946-4.616-2.03-9.125-6.646-10.071s-9.125,2.03-10.071,6.646
			l-2.752,13.431c-5.759-3.969-11.374-8.135-16.899-12.414l6.143-19.409c1.422-4.494-1.068-9.29-5.563-10.713
			c-4.494-1.422-9.29,1.068-10.713,5.563l-4.072,12.868c-5.306-4.536-10.477-9.219-15.515-14.049l8.079-18.523
			c1.826-4.307-0.156-9.282-4.444-11.153c-4.288-1.871-9.283,0.059-11.198,4.328l-5.406,12.396
			c-4.8-5.051-9.502-10.19-14.021-15.504l10.035-17.692c2.324-4.098,0.886-9.305-3.213-11.629
			c-4.098-2.324-9.305-0.886-11.629,3.212l-6.743,11.884c-4.258-5.529-8.309-11.223-12.262-16.994l11.843-16.562
			c1.791-2.479,2.117-5.728,0.856-8.514c-1.261-2.786-3.917-4.685-6.961-4.976c-3.045-0.291-6.012,1.069-7.779,3.565l-7.914,11.067
			c-3.652-5.931-7.143-11.966-10.474-18.105l13.53-15.258c3.071-3.531,2.725-8.878-0.776-11.983
			c-3.501-3.106-8.85-2.812-11.99,0.658l-9.164,10.334c-5.328-11.108-10.029-22.568-14.266-34.263
			c80.304-18.966,164.699,5.061,222.971,63.48c29.586,29.408,50.842,66.138,61.6,106.442c2.187,7.647,3.901,15.421,5.133,23.279
			c0.642,3.496,1.142,7.129,1.558,11.1c0.174,0.985,0.267,1.983,0.279,2.983l0.062,1.029c0.584,4.733,0.918,9.494,1,14.263
			l-0.046,0.679l0.158,0.779l-0.046,0.542l0.017,0.538C494.941,255.283,494.825,261.299,494.538,267.362z"/>
	</g>
</g>
<g>
</g>
<g>
</g>
<g>
</g>
<g>
</g>
<g>
</g>
<g>
</g>
<g>
</g>
<g>
</g>
<g>
</g>
<g>
</g>
<g>
</g>
<g>
</g>
<g>
</g>
<g>
</g>
<g>
</g>
</svg>
