<svg height="512" viewBox="0 0 60 60" width="512" xmlns="http://www.w3.org/2000/svg"><g id="Page-1" fill="none" fill-rule="evenodd"><g id="036---Eating-Veg" fill="rgb(0,0,0)" fill-rule="nonzero" transform="translate(-1)"><path id="Shape" d="m46 30c-8.2842712 0-15 6.7157288-15 15s6.7157288 15 15 15 15-6.7157288 15-15c-.0093685-8.2803876-6.7196124-14.9906315-15-15zm0 28c-7.1797017 0-13-5.8202983-13-13s5.8202983-13 13-13 13 5.8202983 13 13c-.008266 7.1762751-5.8237249 12.991734-13 13z"/><path id="Shape" d="m53.293 38.293-12.293 12.293-3.293-3.293c-.3923789-.3789722-1.0160848-.3735524-1.4018186.0121814s-.3911536 1.0094397-.0121814 1.4018186l4 4c.3904999.3903819 1.0235001.3903819 1.414 0l13-13c.3789722-.3923789.3735524-1.0160848-.0121814-1.4018186s-1.0094397-.3911536-1.4018186-.0121814z"/><path id="Shape" d="m1 11c-.05078865 2.3909162 1.64604172 4.4631703 4 4.885v24.645c.00099605 1.5296805.42756897 3.0289181 1.232 4.33.81031889 1.294305 1.95812988 2.3432382 3.32 3.034 2.1168986 1.0509528 3.453575 3.212585 3.448 5.576v3.53c0 1.6568542 1.3431458 3 3 3h8c1.6568542 0 3-1.3431458 3-3v-3.53c.000242-1.1538678.3211859-2.2849612.927-3.267.2876158-.4663718.6367564-.8918659 1.038-1.265.263662-.2411543.3786415-.604652.3016267-.9535671-.0770147-.3489152-.3343232-.6302392-.675-.738-.3406767-.1077609-.7129647-.0255872-.9766267.2155671-1.6707258 1.5508175-2.618547 3.7284502-2.615 6.008v3.53c0 .5522847-.4477153 1-1 1h-8c-.5522847 0-1-.4477153-1-1v-3.53c.0078454-3.1190624-1.7545271-5.9725012-4.547-7.362-1.03373055-.5233267-1.90529217-1.3184841-2.521-2.3-.6091933-.9848514-.93192801-2.1199634-.932-3.278v-24.3l2 .318v19.452c.00820583 1.6534434 1.3465566 2.9917942 3 3 1.6568542 0 3-1.3431458 3-3v-18.506l2 .317v18.189c.0082058 1.6534434 1.3465566 2.9917942 3 3 1.6568542 0 3-1.3431458 3-3v-17.237l2 .317v16.92c.0082058 1.6534434 1.3465566 2.9917942 3 3 1.6568542 0 3-1.3431458 3-3v-15.968l2 .317v11.251c0 .5522847.4477153 1 1 1s1-.4477153 1-1v-10.934l7.723 1.225c3.8796506.6109323 7.699288-1.4016086 9.389-4.947l5.576 2.823c.7632903.386676 1.6817063.2945611 2.353-.236.770877-.6202967 1.1183386-1.6273136.894-2.591l-1.248-5.714c-.0309927-.1446923-.0309927-.2943077 0-.439l1.249-5.714c.2275525-.96630454-.1197331-1.97743846-.893-2.6-.6713218-.53161769-1.5908316-.62341242-2.354-.235l-5.577 2.825c-1.6901849-3.5459497-5.5107289-5.55853956-9.391-4.947l-37.509 5.949c-2.4556077.33283974-4.26907694 2.45759537-4.212 4.935zm12 25c0 .5522847-.4477153 1-1 1-.2696918.0006712-.5276905-.1100548-.713-.306-.1854514-.1830903-.2889672-.4334037-.287-.694v-19.14l2 .317zm8 0c0 .5522847-.4477153 1-1 1-.2696918.0006712-.5276905-.1100548-.713-.306-.1854514-.1830903-.2889672-.4334037-.287-.694v-17.871l2 .317zm8 0c0 .5522847-.4477153 1-1 1-.2696918.0006712-.5276905-.1100548-.713-.306-.1854514-.1830903-.2889672-.4334037-.287-.694v-16.6l2 .317zm29.588-31.974c.0721494-.04284108.1640969-.03175813.224.027.1648405.14669019.230605.3751151.169.587l-1.172 5.36h-1.809c-.5522847 0-1 .4477153-1 1s.4477153 1 1 1h1.811l1.173 5.373c.0598553.2102442-.0062537.4361814-.17.581-.059251.0592697-.1513161.0704166-.223.027l-5.813-2.941c.1465517-.6454329.2210076-1.3051389.222-1.967v-4.139c-.0003938-.66211363-.0741776-1.32214363-.22-1.968zm-53.064 4.015 8.476-1.341 1.072 2.675c.1329028.33189973.4327765.56768493.7866615.6185376.353885.0508527.7080177-.09095293.929-.372.2209822-.28104707.2752413-.65863787.1423385-.9905376l-.9-2.253 3.992-.633 1.053 2.63c.1329028.33189973.4327765.56768493.7866615.6185376s.7080177-.09095293.929-.372c.2209822-.28104707.2752413-.65863787.1423385-.9905376l-.89-2.211 9.633-1.527 1.393 3.479c.2054499.51307252.7879275.7624499 1.301.55699998.5130725-.20544993.7624499-.78792745.557-1.30099998l-1.227-3.057 4-.634 1.371 3.434c.1325455.33189973.4320891.56787553.7857954.6190376.3537064.05116207.7078392-.09026233.929-.371.2211609-.28073767.2757501-.65813787.1432046-.9900376l-1.2-3.013 3.308-.525c1.9955292-.30872914 4.0262246.27125444 5.5576975 1.58732487 1.5314728 1.31607044 2.4103326 3.23641159 2.4053025 5.25567513v4.139c.0054642 2.0197866-.8735668 3.9407309-2.4056007 5.2569528-1.5320338 1.3162219-3.5634951 1.8957797-5.5593993 1.5860472l-37.511-5.95c-1.48168013-.1873256-2.57613087-1.4734353-2.524-2.966-.04891256-1.49008972 1.04483834-2.77234365 2.524-2.959z"/></g></g></svg>