<svg height="512" viewBox="0 0 62 61" width="512" xmlns="http://www.w3.org/2000/svg"><g id="Page-1" fill="none" fill-rule="evenodd"><g id="017---Racket" fill="rgb(0,0,0)" fill-rule="nonzero"><path id="Shape" d="m29.058 7.487c-4.3059573 4.3415133-7.2704346 9.8312989-8.539 15.813-.166.822-.283 1.624-.365 2.411-.669 3.692-2.364 10.543-6.261 16.14-.5253251.0019267-1.0285777.2114954-1.4.583l-10.978 10.909c-.78076388.7809997-.78076388 2.0470003 0 2.828l4.243 4.243c.78077015.7794319 2.04522985.7794319 2.826 0l10.976-10.9c.3698672-.3688421.5793548-.8686658.583-1.391 4.8734943-3.1838672 10.356512-5.3181573 16.1-6.267.8-.082 1.6173333-.2063333 2.452-.373 5.9831295-1.267847 11.4743931-4.2323725 15.817-8.539 8.276-8.275 8.722-18.951 1.109-26.564s-18.287-7.17-26.563 1.107zm-5.258 30.713c.268.268.555.516.847.757-1 .4-1.964.834-2.895 1.29.46-.9386667.8933333-1.9116667 1.3-2.919.248.294.479.598.748.872zm-2.119-2.889c-.8587149 2.395906-1.9474644 4.7030101-3.251 6.889-.0187217.0410282-.0341048.0834992-.046.127-.0317248.0638385-.0565325.1308863-.074.2-.0106685.1261081-.0106685.2528919 0 .379.0170657.0690992.0415408.1361544.073.2.012234.0438499.0279506.0866526.047.128.008.015.021.024.03.038.0159216.0224426.0332919.0438214.052.064.063741.0812405.1400328.1517936.226.209.011.007.016.018.028.025l.017.008c.0535692.0293161.1098268.0534265.168.072.0251309.0116173.05083.0219637.077.031.0739677.0184555.1497791.028519.226.03h.029c.0096606.0004853.0193394.0004853.029 0 .0762306-.0013519.1520566-.0114173.226-.03.0262354-.0088605.0519438-.0192106.077-.031.058242-.0183887.1145172-.0425066.168-.072l.018-.008c2.1887595-1.3082766 4.4996528-2.4004249 6.9-3.261.9153825.4827964 1.8830116.8592457 2.884 1.122-3.6813972 1.1158867-7.1777918 2.7693956-10.376 4.907l-3.554-3.554c2.1460138-3.2109778 3.8046728-6.7220643 4.922-10.419.2547555 1.0205772.6262028 2.0084188 1.107 2.944zm-11.671 20.871-2.131-2.132c-.39237889-.3789722-1.01608478-.3735524-1.40181858.0121814-.38573379.3857338-.39115363 1.0094397-.01218142 1.4018186l2.126 2.127-1.418 1.409-4.246-4.24 8.138-8.086 2.135 2.126c.2510745.2599566.6228779.3642126.9725073.2726972.3496295-.0915155.6226744-.3645604.7141899-.7141899.0915154-.3496294-.0127406-.7214328-.2726972-.9725073l-2.125-2.126 1.418-1.41 4.24 4.25zm43.09-24.654c-4.0632407 4.0305153-9.2013659 6.80545-14.8 7.993-5.558 1.117-10.2.144-13.085-2.737s-3.853-7.529-2.736-13.084c1.1866918-5.5989493 3.9617505-10.737304 7.993-14.8 3.919-3.919 8.423-5.894 12.8-5.894 4.1420327.05322691 8.0864509 1.77945089 10.936 4.786 6.767 6.768 6.321 16.308-1.108 23.736z"/><path id="Shape" d="m32.349 9.885c-.017.015-.038.02-.054.036s-.015.026-.025.037c-.127.122-.258.231-.384.357-7.789 7.79-10.343 19.966-5.255 25.054 2.0436033 1.828866 4.7309493 2.7693832 7.469 2.614.272 0 .552-.011.832-.025h.011.016c1.1529375-.0604326 2.2986926-.2183293 3.425-.472.249-.056.5-.133.747-.2.0620965-.0099807.123058-.0260584.182-.048 2.4306313-.6541301 4.7595343-1.6400694 6.921-2.93.007 0 .012-.009.019-.012 1.9781209-1.1643991 3.8040774-2.5698079 5.436-4.184.126-.126.234-.256.355-.383.012-.01.028-.014.039-.025s.022-.039.037-.056c6.256-6.6 6.554-14.567.678-20.443s-13.85-5.576-20.449.68zm22.361 11.138-1.21-1.21 1.451-1.45c.0270237.8931349-.0538953 1.7862655-.241 2.66zm-3.374 6.525-2.785-2.785 3.535-3.536 1.962 1.962c-.6637618 1.5893588-1.5795208 3.061259-2.712 4.359zm-5.331 4.569-2.4-2.4 3.536-3.536 2.817 2.817c-1.2123954 1.1665544-2.5364153 2.2112339-3.953 3.119zm-6.812 3.083-.541-.542 3.535-3.535 2.032 2.032c-1.5966507.8609912-3.2817962 1.5466503-5.026 2.045zm-12.376-12.373c.5009204-1.7438445 1.1847172-3.429873 2.04-5.03l2.016 2.016-3.535 3.536zm5.471-1.6 3.535 3.536-3.535 3.537-3.536-3.535zm6.529-13.269 1.956 1.955-3.536 3.536-2.785-2.785c1.2996334-1.13138041 2.7736558-2.04517297 4.365-2.706zm3.37 3.37 3.536 3.535-3.536 3.537-3.536-3.536zm8.455-1.384-3.505 3.5-3.537-3.531 2.48-2.478c1.6893638.48416123 3.2484032 1.34159872 4.562 2.509zm-7.042 9.869 3.536-3.535 3.535 3.535-3.535 3.536zm2.122 4.95-3.535 3.537-3.536-3.536 3.536-3.536zm-4.95-4.95-3.536 3.536-3.536-3.536 3.535-3.535zm-3.536 6.364 3.536 3.536-3.536 3.535-3.536-3.536zm14.85-7.777-3.535-3.535 3.5-3.5c1.1691265 1.3098494 2.0307875 2.8643925 2.522 4.55zm-8.832-11.364c.126 0 .251.015.377.019l-1.444 1.445-1.212-1.213c.7490461-.16161706 1.5127348-.2457267 2.279-.251zm-10.248 5.01 2.817 2.817-3.536 3.537-2.394-2.394c.9035109-1.4201561 1.9463328-2.746714 3.113-3.96zm-6.955 15.418 1.287-1.287 3.536 3.535-3.465 3.465c-1.0472811-1.7120438-1.5228732-3.7128229-1.358-5.713zm2.768 7.136 3.469-3.468 3.535 3.535-1.307 1.303c-1.996194.1585386-3.9911433-.3212017-5.697-1.37z"/></g></g></svg>