<?xml version="1.0" encoding="iso-8859-1"?>
<!-- Generator: Adobe Illustrator 19.0.0, SVG Export Plug-In . SVG Version: 6.00 Build 0)  -->
<svg version="1.1" id="Capa_1" xmlns="http://www.w3.org/2000/svg" xmlns:xlink="http://www.w3.org/1999/xlink" x="0px" y="0px"
	 viewBox="0 0 511.994 511.994" style="enable-background:new 0 0 511.994 511.994;" xml:space="preserve">
<g>
	<g>
		<g>
			<path d="M332.797,273.061c-47.128,0-85.333,38.205-85.333,85.333s38.205,85.333,85.333,85.333s85.333-38.205,85.333-85.333
				C418.076,311.288,379.903,273.115,332.797,273.061z M332.797,426.661c-37.703,0-68.267-30.564-68.267-68.267
				s30.564-68.267,68.267-68.267s68.267,30.564,68.267,68.267C401.021,396.079,370.482,426.617,332.797,426.661z"/>
			<path d="M349.864,392.527h-8.533v-34.133c0-4.713-3.82-8.533-8.533-8.533s-8.533,3.82-8.533,8.533v34.133h-8.533
				c-4.713,0-8.533,3.821-8.533,8.533s3.82,8.533,8.533,8.533h34.133c4.713,0,8.533-3.82,8.533-8.533
				S354.576,392.527,349.864,392.527z"/>
			<path d="M477.864,460.794h-17.067V321.661c0.191-23.902-8.768-46.972-25.041-64.481c-8.953-24.036-9.092-68.996-9.092-69.452
				V59.098c16.61-1.987,52.903-10.523,67.658-47.399c1.737-4.374-0.393-9.328-4.762-11.076c-4.369-1.748-9.329,0.37-11.088,4.735
				c-14.658,36.654-58.5,37.296-60.367,37.304h-17.042c-14.132,0.015-25.585,11.468-25.6,25.6v28.145l-27.121-31.625l22.121-22.121
				c3.201-3.2,5-7.54,5-12.067s-1.799-8.867-5-12.067L356.93,4.994c-6.667-6.659-17.467-6.659-24.133,0l-54.733,54.733
				c-3.201,3.2-5,7.54-5,12.067s1.799,8.867,5,12.067l13.533,13.533c6.668,6.656,17.466,6.656,24.133,0l20.513-20.513l39.221,45.733
				v65.112c-0.261,17.42-7.904,33.911-21.028,45.369l-200.839,42.319V162.127h28.508c11.606,0.001,21.342-8.756,22.565-20.297
				c1.224-11.541-6.459-22.145-17.807-24.578L88.905,96.26c-5.039-1.079-10.296,0.177-14.304,3.417s-6.337,8.117-6.338,13.271
				v32.112c0.011,9.421,7.645,17.056,17.067,17.067h17.067v124.266c-30.892,9.422-51.789,38.188-51.2,70.48v103.921H34.13
				c-9.421,0.011-17.056,7.645-17.067,17.067v17.067c0.011,9.421,7.645,17.056,17.067,17.067h17.067
				c9.421-0.011,17.056-7.645,17.067-17.067v-17.067H443.73v17.067c0.011,9.421,7.646,17.056,17.067,17.067h17.067
				c9.421-0.011,17.056-7.645,17.067-17.067v-17.067C494.919,468.439,487.285,460.805,477.864,460.794z M303.664,85.327
				L290.13,71.794l54.733-54.733l13.533,13.533L303.664,85.327z M34.13,494.927v-17.067h17.067l0.008,17.067H34.13z M392.53,68.261
				c0.005-4.711,3.822-8.529,8.533-8.533h8.533v119.467H392.53V68.261z M392.055,196.261h17.708
				c0.431,14.777,1.841,29.509,4.219,44.099c-10.758-5.857-22.705-9.197-34.94-9.769
				C386.156,220.401,390.627,208.605,392.055,196.261z M85.33,145.061v-32.112l97.958,20.996c2.812,0.603,4.715,3.231,4.41,6.091
				c-0.304,2.859-2.718,5.028-5.594,5.026H85.33z M119.464,213.327v-51.2h17.067v51.2H119.464z M136.53,230.394v48.617
				l-17.067,3.596v-52.214H136.53z M443.73,460.794H68.264V356.873c-0.733-25.732,16.523-48.514,41.492-54.779l252.717-53.25
				c19.034-4.049,38.873,0.878,53.8,13.362c1.972,1.617,3.857,3.337,5.646,5.154c0.163,0.189,0.371,0.329,0.55,0.503
				c13.847,14.464,21.48,33.775,21.263,53.797V460.794z M460.797,494.927v-17.067h17.067l0.008,17.067H460.797z"/>
		</g>
	</g>
</g>
<g>
</g>
<g>
</g>
<g>
</g>
<g>
</g>
<g>
</g>
<g>
</g>
<g>
</g>
<g>
</g>
<g>
</g>
<g>
</g>
<g>
</g>
<g>
</g>
<g>
</g>
<g>
</g>
<g>
</g>
</svg>
