<?xml version="1.0" encoding="iso-8859-1"?>
<!-- Generator: Adobe Illustrator 19.0.0, SVG Export Plug-In . SVG Version: 6.00 Build 0)  -->
<svg version="1.1" id="Capa_1" xmlns="http://www.w3.org/2000/svg" xmlns:xlink="http://www.w3.org/1999/xlink" x="0px" y="0px"
	 viewBox="0 0 512 512" style="enable-background:new 0 0 512 512;" xml:space="preserve">
<g>
	<g>
		<path d="M507,166.961l-14.706-14.706L507,137.548c6.659-6.667,6.659-17.467,0-24.133l-34.785-34.786l27.435-27.435
			c1.601-1.6,2.5-3.77,2.5-6.033s-0.899-4.433-2.5-6.033l-26.775-26.771c-1.6-1.601-3.77-2.5-6.033-2.5s-4.433,0.899-6.033,2.5
			l-27.431,27.432L398.592,5.003c-6.668-6.662-17.473-6.662-24.142,0l-14.7,14.704l-0.002,0.002L345.042,5.003
			c-6.667-6.658-17.467-6.658-24.133,0L306.2,19.707c-3.201,3.2-5,7.54-5,12.067c0,4.526,1.799,8.867,5,12.067l61.559,61.561
			l-32.109,32.109c-2.508,2.51-4.216,5.707-4.908,9.188l-4.9,24.467c-0.073,0.371-0.363,0.66-0.733,0.733l-24.467,4.896
			c-3.484,0.692-6.684,2.405-9.192,4.921L181.725,291.44c-2.523,2.511-4.241,5.717-4.933,9.208l-4.892,24.467
			c-0.077,0.369-0.365,0.656-0.733,0.733l-24.475,4.892c-3.485,0.694-6.684,2.408-9.192,4.925l-32.099,32.099l-61.559-61.562
			c-3.193-3.212-7.538-5.012-12.067-5h-0.016c-4.524-0.011-8.863,1.789-12.05,5L5,320.907c-3.201,3.201-5,7.542-5,12.069
			s1.799,8.868,5,12.069l14.708,14.708L5,374.457c-6.658,6.667-6.658,17.467,0,24.133l34.785,34.786L12.35,460.811
			c-1.601,1.6-2.5,3.77-2.5,6.033c0,2.263,0.899,4.434,2.5,6.033l26.775,26.775c1.6,1.601,3.77,2.5,6.033,2.5
			c2.263,0,4.434-0.899,6.033-2.5l27.432-27.436l34.784,34.786c6.671,6.656,17.471,6.656,24.142,0l14.7-14.704l0.002-0.002
			l14.706,14.706c6.668,6.656,17.465,6.656,24.133,0l14.708-14.704c3.201-3.2,5-7.54,5-12.067s-1.799-8.867-5-12.067l-61.542-61.544
			l32.558-32.373l24.458-4.892c7.14-1.399,12.724-6.981,14.125-14.121l5.15-24.946l110.217-109.992l24.467-4.892
			c7.13-1.416,12.702-6.991,14.117-14.121l5.15-24.942l32.099-32.102l61.559,61.561c6.668,6.656,17.466,6.656,24.133,0L507,191.098
			c3.201-3.201,5-7.542,5-12.069S510.201,170.161,507,166.961z M466.842,30.457l14.708,14.704l-21.4,21.4l-7.354-7.352l-7.353-7.353
			L466.842,30.457z M386.525,17.069l40.811,40.813l0.005,0.008l13.388,13.385l54.204,54.206l-14.706,14.706l-54.206-54.206
			l-54.204-54.208L386.525,17.069z M45.158,481.553L30.45,466.844l21.4-21.4l7.354,7.352l7.353,7.353L45.158,481.553z
			 M140.183,480.232l-14.708,14.704l-40.811-40.813l-0.005-0.008L71.271,440.73l-54.204-54.206l14.708-14.704l108.411,108.41
			L140.183,480.232z M193.742,480.224l-14.717,14.712L17.067,332.978l14.708-14.708l67.573,67.568l0.019,0.028l26.775,26.771
			l0.022,0.015L193.742,480.224z M362.442,164.269c-2.523,2.509-4.241,5.714-4.933,9.204l-4.892,24.467
			c-0.073,0.371-0.363,0.661-0.733,0.733l-24.467,4.892c-3.486,0.695-6.688,2.409-9.2,4.925L208.475,318.232
			c-2.508,2.51-4.216,5.707-4.908,9.188l-4.908,24.487c-0.072,0.364-0.36,0.647-0.725,0.713l-24.467,4.896
			c-3.484,0.692-6.684,2.405-9.192,4.921l-32.1,32.1l-7.346-7.344l-7.345-7.344l32.558-32.374l24.475-4.892
			c7.13-1.415,12.704-6.99,14.117-14.121l5.15-24.946l110.208-109.988l24.467-4.896c7.131-1.41,12.706-6.985,14.117-14.117
			l5.15-24.946l32.1-32.1l7.354,7.352l7.353,7.353L362.442,164.269z M480.225,193.736l-67.587-67.589l-0.004-0.007l-13.388-13.385
			l-80.979-80.981l14.708-14.704l62.91,62.911l72.273,72.281l0.046,0.037l26.729,26.73L480.225,193.736z"/>
	</g>
</g>
<g>
</g>
<g>
</g>
<g>
</g>
<g>
</g>
<g>
</g>
<g>
</g>
<g>
</g>
<g>
</g>
<g>
</g>
<g>
</g>
<g>
</g>
<g>
</g>
<g>
</g>
<g>
</g>
<g>
</g>
</svg>
